%TF.GenerationSoftware,KiCad,Pcbnew,9.0.7-9.0.7~ubuntu24.04.1*%
%TF.CreationDate,2026-03-22T12:51:48-04:00*%
%TF.ProjectId,555_pwm,3535355f-7077-46d2-9e6b-696361645f70,rev?*%
%TF.SameCoordinates,Original*%
%TF.FileFunction,Copper,L1,Top*%
%TF.FilePolarity,Positive*%
%FSLAX46Y46*%
G04 Gerber Fmt 4.6, Leading zero omitted, Abs format (unit mm)*
G04 Created by KiCad (PCBNEW 9.0.7-9.0.7~ubuntu24.04.1) date 2026-03-22 12:51:48*
%MOMM*%
%LPD*%
G01*
G04 APERTURE LIST*
G04 Aperture macros list*
%AMRoundRect*
0 Rectangle with rounded corners*
0 $1 Rounding radius*
0 $2 $3 $4 $5 $6 $7 $8 $9 X,Y pos of 4 corners*
0 Add a 4 corners polygon primitive as box body*
4,1,4,$2,$3,$4,$5,$6,$7,$8,$9,$2,$3,0*
0 Add four circle primitives for the rounded corners*
1,1,$1+$1,$2,$3*
1,1,$1+$1,$4,$5*
1,1,$1+$1,$6,$7*
1,1,$1+$1,$8,$9*
0 Add four rect primitives between the rounded corners*
20,1,$1+$1,$2,$3,$4,$5,0*
20,1,$1+$1,$4,$5,$6,$7,0*
20,1,$1+$1,$6,$7,$8,$9,0*
20,1,$1+$1,$8,$9,$2,$3,0*%
G04 Aperture macros list end*
%TA.AperFunction,ComponentPad*%
%ADD10R,1.700000X1.700000*%
%TD*%
%TA.AperFunction,ComponentPad*%
%ADD11C,1.700000*%
%TD*%
%TA.AperFunction,SMDPad,CuDef*%
%ADD12RoundRect,0.150000X-0.825000X-0.150000X0.825000X-0.150000X0.825000X0.150000X-0.825000X0.150000X0*%
%TD*%
%TA.AperFunction,SMDPad,CuDef*%
%ADD13RoundRect,0.225000X-0.375000X0.225000X-0.375000X-0.225000X0.375000X-0.225000X0.375000X0.225000X0*%
%TD*%
%TA.AperFunction,SMDPad,CuDef*%
%ADD14RoundRect,0.237500X0.300000X0.237500X-0.300000X0.237500X-0.300000X-0.237500X0.300000X-0.237500X0*%
%TD*%
%TA.AperFunction,SMDPad,CuDef*%
%ADD15RoundRect,0.250000X-0.325000X-0.450000X0.325000X-0.450000X0.325000X0.450000X-0.325000X0.450000X0*%
%TD*%
%TA.AperFunction,SMDPad,CuDef*%
%ADD16R,1.200000X1.200000*%
%TD*%
%TA.AperFunction,SMDPad,CuDef*%
%ADD17R,1.600000X1.500000*%
%TD*%
%TA.AperFunction,SMDPad,CuDef*%
%ADD18RoundRect,0.250000X-0.450000X0.350000X-0.450000X-0.350000X0.450000X-0.350000X0.450000X0.350000X0*%
%TD*%
%TA.AperFunction,SMDPad,CuDef*%
%ADD19RoundRect,0.225000X0.375000X-0.225000X0.375000X0.225000X-0.375000X0.225000X-0.375000X-0.225000X0*%
%TD*%
%TA.AperFunction,SMDPad,CuDef*%
%ADD20RoundRect,0.237500X-0.237500X0.300000X-0.237500X-0.300000X0.237500X-0.300000X0.237500X0.300000X0*%
%TD*%
%TA.AperFunction,SMDPad,CuDef*%
%ADD21RoundRect,0.250000X0.350000X0.450000X-0.350000X0.450000X-0.350000X-0.450000X0.350000X-0.450000X0*%
%TD*%
%TA.AperFunction,ViaPad*%
%ADD22C,0.600000*%
%TD*%
%TA.AperFunction,Conductor*%
%ADD23C,0.500000*%
%TD*%
G04 APERTURE END LIST*
D10*
%TO.P,J1,1,Pin_1*%
%TO.N,Net-(J1-Pin_1)*%
X192500000Y-102500000D03*
D11*
%TO.P,J1,2,Pin_2*%
%TO.N,GND*%
X189960000Y-102500000D03*
%TD*%
D12*
%TO.P,U1,1,GND*%
%TO.N,GND*%
X195050000Y-107690000D03*
%TO.P,U1,2,TRIG*%
%TO.N,Net-(U1-THRES)*%
X195050000Y-108960000D03*
%TO.P,U1,3,OUT*%
%TO.N,Net-(J2-Pin_1)*%
X195050000Y-110230000D03*
%TO.P,U1,4,~{RST}*%
%TO.N,Net-(J1-Pin_1)*%
X195050000Y-111500000D03*
%TO.P,U1,5,CONT*%
%TO.N,Net-(U1-CONT)*%
X200000000Y-111500000D03*
%TO.P,U1,6,THRES*%
%TO.N,Net-(U1-THRES)*%
X200000000Y-110230000D03*
%TO.P,U1,7,DISCH*%
%TO.N,Net-(D1-A)*%
X200000000Y-108960000D03*
%TO.P,U1,8,VCC*%
%TO.N,Net-(J1-Pin_1)*%
X200000000Y-107690000D03*
%TD*%
D10*
%TO.P,J2,1,Pin_1*%
%TO.N,Net-(J2-Pin_1)*%
X201500000Y-120500000D03*
%TD*%
D13*
%TO.P,D2,1,K*%
%TO.N,Net-(D1-A)*%
X190000000Y-107600000D03*
%TO.P,D2,2,A*%
%TO.N,Net-(D2-A)*%
X190000000Y-110900000D03*
%TD*%
D14*
%TO.P,C2,1*%
%TO.N,Net-(U1-CONT)*%
X198225000Y-113500000D03*
%TO.P,C2,2*%
%TO.N,GND*%
X196500000Y-113500000D03*
%TD*%
D10*
%TO.P,J3,1,Pin_1*%
%TO.N,GND*%
X181000000Y-120500000D03*
%TD*%
D15*
%TO.P,D3,1,K*%
%TO.N,GND*%
X189700000Y-116500000D03*
%TO.P,D3,2,A*%
%TO.N,Net-(D3-A)*%
X191750000Y-116500000D03*
%TD*%
D16*
%TO.P,RV1,1,1*%
%TO.N,Net-(D2-A)*%
X186500000Y-111000000D03*
D17*
%TO.P,RV1,2,2*%
%TO.N,Net-(U1-THRES)*%
X185500000Y-114250000D03*
D16*
%TO.P,RV1,3,3*%
%TO.N,Net-(D1-K)*%
X184500000Y-111000000D03*
%TD*%
D18*
%TO.P,R1,1*%
%TO.N,Net-(J1-Pin_1)*%
X185250000Y-106000000D03*
%TO.P,R1,2*%
%TO.N,Net-(D1-A)*%
X185250000Y-108000000D03*
%TD*%
D19*
%TO.P,D1,1,K*%
%TO.N,Net-(D1-K)*%
X181000000Y-110855000D03*
%TO.P,D1,2,A*%
%TO.N,Net-(D1-A)*%
X181000000Y-107555000D03*
%TD*%
D20*
%TO.P,C1,1*%
%TO.N,Net-(U1-THRES)*%
X185500000Y-117000000D03*
%TO.P,C1,2*%
%TO.N,GND*%
X185500000Y-118725000D03*
%TD*%
D21*
%TO.P,R2,1*%
%TO.N,Net-(J2-Pin_1)*%
X197000000Y-116500000D03*
%TO.P,R2,2*%
%TO.N,Net-(D3-A)*%
X195000000Y-116500000D03*
%TD*%
D22*
%TO.N,GND*%
X194442178Y-113288853D03*
X192500000Y-106000000D03*
%TO.N,Net-(U1-THRES)*%
X202500000Y-110500000D03*
X188000000Y-115500000D03*
X192000000Y-110000000D03*
%TO.N,Net-(D1-A)*%
X192000000Y-107500000D03*
X202500000Y-109000000D03*
%TD*%
D23*
%TO.N,GND*%
X186025000Y-118725000D02*
X185500000Y-118725000D01*
%TO.N,Net-(U1-THRES)*%
X193000000Y-109000000D02*
X192000000Y-110000000D01*
X193000000Y-109000000D02*
X195010000Y-109000000D01*
X195010000Y-109000000D02*
X195050000Y-108960000D01*
X202000000Y-110500000D02*
X201730000Y-110230000D01*
X185500000Y-115500000D02*
X185500000Y-117000000D01*
X202500000Y-110500000D02*
X202000000Y-110500000D01*
X185500000Y-114250000D02*
X185500000Y-115500000D01*
X185500000Y-115500000D02*
X188000000Y-115500000D01*
X201730000Y-110230000D02*
X200000000Y-110230000D01*
%TO.N,Net-(U1-CONT)*%
X200000000Y-113000000D02*
X199500000Y-113500000D01*
X200000000Y-111500000D02*
X200000000Y-113000000D01*
X199500000Y-113500000D02*
X198225000Y-113500000D01*
%TO.N,Net-(D3-A)*%
X191750000Y-116500000D02*
X195000000Y-116500000D01*
%TO.N,Net-(J1-Pin_1)*%
X185750000Y-104500000D02*
X185250000Y-105000000D01*
X192500000Y-104500000D02*
X185750000Y-104500000D01*
X196500000Y-111500000D02*
X197500000Y-110500000D01*
X197500000Y-110500000D02*
X197500000Y-109000000D01*
X192500000Y-104500000D02*
X198250000Y-104500000D01*
X195050000Y-111500000D02*
X196500000Y-111500000D01*
X198250000Y-104500000D02*
X200000000Y-106250000D01*
X200000000Y-106250000D02*
X200000000Y-107690000D01*
X192500000Y-102500000D02*
X192500000Y-104500000D01*
X198810000Y-107690000D02*
X200000000Y-107690000D01*
X185250000Y-105000000D02*
X185250000Y-106000000D01*
X197500000Y-109000000D02*
X198810000Y-107690000D01*
%TO.N,Net-(J2-Pin_1)*%
X197000000Y-115750000D02*
X197000000Y-116500000D01*
X197250000Y-116250000D02*
X197000000Y-116000000D01*
X193770000Y-110230000D02*
X192500000Y-111500000D01*
X197250000Y-116500000D02*
X197250000Y-116250000D01*
X199000000Y-116500000D02*
X201500000Y-119000000D01*
X192500000Y-113750000D02*
X193750000Y-115000000D01*
X195050000Y-110230000D02*
X193770000Y-110230000D01*
X192500000Y-111500000D02*
X192500000Y-113750000D01*
X201500000Y-119000000D02*
X201500000Y-120500000D01*
X196250000Y-115000000D02*
X197000000Y-115750000D01*
X197000000Y-116500000D02*
X199000000Y-116500000D01*
X193750000Y-115000000D02*
X196250000Y-115000000D01*
%TO.N,Net-(D1-A)*%
X183250000Y-108000000D02*
X182805000Y-107555000D01*
X187900000Y-107600000D02*
X190000000Y-107600000D01*
X191900000Y-107600000D02*
X190000000Y-107600000D01*
X192000000Y-107500000D02*
X191900000Y-107600000D01*
X185250000Y-108000000D02*
X183250000Y-108000000D01*
X182805000Y-107555000D02*
X181000000Y-107555000D01*
X185250000Y-108000000D02*
X187500000Y-108000000D01*
X200000000Y-108960000D02*
X202460000Y-108960000D01*
X187500000Y-108000000D02*
X187900000Y-107600000D01*
X202460000Y-108960000D02*
X202500000Y-109000000D01*
%TO.N,Net-(D2-A)*%
X190000000Y-110900000D02*
X186600000Y-110900000D01*
X189900000Y-111000000D02*
X190000000Y-110900000D01*
X186600000Y-110900000D02*
X186500000Y-111000000D01*
%TO.N,Net-(D1-K)*%
X184500000Y-111000000D02*
X183500000Y-111000000D01*
X183355000Y-110855000D02*
X181000000Y-110855000D01*
X183500000Y-111000000D02*
X183355000Y-110855000D01*
X184455000Y-110955000D02*
X184500000Y-111000000D01*
%TD*%
%TA.AperFunction,Conductor*%
%TO.N,GND*%
G36*
X198469946Y-109193933D02*
G01*
X198525880Y-109235804D01*
X198545690Y-109275519D01*
X198573254Y-109370395D01*
X198573255Y-109370396D01*
X198656917Y-109511862D01*
X198661702Y-109518031D01*
X198659256Y-109519927D01*
X198685857Y-109568642D01*
X198680873Y-109638334D01*
X198660069Y-109670703D01*
X198661702Y-109671969D01*
X198656917Y-109678137D01*
X198573255Y-109819603D01*
X198573254Y-109819606D01*
X198527402Y-109977426D01*
X198527401Y-109977432D01*
X198524500Y-110014298D01*
X198524500Y-110445701D01*
X198527401Y-110482567D01*
X198527402Y-110482573D01*
X198573254Y-110640393D01*
X198573255Y-110640396D01*
X198656917Y-110781862D01*
X198661702Y-110788031D01*
X198659256Y-110789927D01*
X198685857Y-110838642D01*
X198680873Y-110908334D01*
X198660069Y-110940703D01*
X198661702Y-110941969D01*
X198656917Y-110948137D01*
X198573255Y-111089603D01*
X198573254Y-111089606D01*
X198527402Y-111247426D01*
X198527401Y-111247432D01*
X198524500Y-111284298D01*
X198524500Y-111715701D01*
X198527401Y-111752567D01*
X198527402Y-111752573D01*
X198573254Y-111910393D01*
X198573255Y-111910396D01*
X198656917Y-112051862D01*
X198656923Y-112051870D01*
X198773129Y-112168076D01*
X198773133Y-112168079D01*
X198773135Y-112168081D01*
X198914602Y-112251744D01*
X198927269Y-112255424D01*
X199072426Y-112297597D01*
X199072429Y-112297597D01*
X199072431Y-112297598D01*
X199109306Y-112300500D01*
X199125500Y-112300500D01*
X199134185Y-112303050D01*
X199143147Y-112301762D01*
X199167187Y-112312740D01*
X199192539Y-112320185D01*
X199198466Y-112327025D01*
X199206703Y-112330787D01*
X199220992Y-112353021D01*
X199238294Y-112372989D01*
X199240581Y-112383503D01*
X199244477Y-112389565D01*
X199249500Y-112424500D01*
X199249500Y-112625500D01*
X199229815Y-112692539D01*
X199177011Y-112738294D01*
X199125500Y-112749500D01*
X199107052Y-112749500D01*
X199040013Y-112729815D01*
X199019371Y-112713181D01*
X198985851Y-112679661D01*
X198985850Y-112679660D01*
X198894629Y-112623395D01*
X198839018Y-112589093D01*
X198839013Y-112589091D01*
X198837569Y-112588612D01*
X198675253Y-112534826D01*
X198675251Y-112534825D01*
X198574178Y-112524500D01*
X197875830Y-112524500D01*
X197875812Y-112524501D01*
X197774747Y-112534825D01*
X197610984Y-112589092D01*
X197610981Y-112589093D01*
X197464148Y-112679661D01*
X197449825Y-112693984D01*
X197388501Y-112727468D01*
X197318809Y-112722482D01*
X197274465Y-112693982D01*
X197260538Y-112680055D01*
X197260534Y-112680052D01*
X197113811Y-112589551D01*
X197113800Y-112589546D01*
X196950152Y-112535319D01*
X196849154Y-112525000D01*
X196750000Y-112525000D01*
X196750000Y-113376000D01*
X196730315Y-113443039D01*
X196677511Y-113488794D01*
X196626000Y-113500000D01*
X196500000Y-113500000D01*
X196500000Y-113626000D01*
X196480315Y-113693039D01*
X196427511Y-113738794D01*
X196376000Y-113750000D01*
X195462501Y-113750000D01*
X195462501Y-113786654D01*
X195472819Y-113887652D01*
X195527046Y-114051300D01*
X195527048Y-114051304D01*
X195532659Y-114060400D01*
X195551101Y-114127792D01*
X195530180Y-114194456D01*
X195476540Y-114239227D01*
X195427122Y-114249500D01*
X194112230Y-114249500D01*
X194045191Y-114229815D01*
X194024549Y-114213181D01*
X193286819Y-113475451D01*
X193272115Y-113448523D01*
X193255523Y-113422705D01*
X193254631Y-113416504D01*
X193253334Y-113414128D01*
X193250500Y-113387770D01*
X193250500Y-113213345D01*
X195462500Y-113213345D01*
X195462500Y-113250000D01*
X196250000Y-113250000D01*
X196250000Y-112524999D01*
X196150860Y-112525000D01*
X196150844Y-112525001D01*
X196049847Y-112535319D01*
X195886199Y-112589546D01*
X195886188Y-112589551D01*
X195739465Y-112680052D01*
X195739461Y-112680055D01*
X195617555Y-112801961D01*
X195617552Y-112801965D01*
X195527051Y-112948688D01*
X195527046Y-112948699D01*
X195472819Y-113112347D01*
X195462500Y-113213345D01*
X193250500Y-113213345D01*
X193250500Y-111862229D01*
X193259143Y-111832792D01*
X193265667Y-111802803D01*
X193269422Y-111797785D01*
X193270185Y-111795190D01*
X193286813Y-111774553D01*
X193368739Y-111692627D01*
X193430058Y-111659145D01*
X193499750Y-111664129D01*
X193555684Y-111706000D01*
X193573629Y-111747067D01*
X193575634Y-111746485D01*
X193623254Y-111910393D01*
X193623255Y-111910396D01*
X193706917Y-112051862D01*
X193706923Y-112051870D01*
X193823129Y-112168076D01*
X193823133Y-112168079D01*
X193823135Y-112168081D01*
X193964602Y-112251744D01*
X193977269Y-112255424D01*
X194122426Y-112297597D01*
X194122429Y-112297597D01*
X194122431Y-112297598D01*
X194159306Y-112300500D01*
X194159314Y-112300500D01*
X195940686Y-112300500D01*
X195940694Y-112300500D01*
X195977569Y-112297598D01*
X195977571Y-112297597D01*
X195977573Y-112297597D01*
X196122733Y-112255424D01*
X196157328Y-112250500D01*
X196573920Y-112250500D01*
X196671462Y-112231096D01*
X196718913Y-112221658D01*
X196855495Y-112165084D01*
X196904729Y-112132186D01*
X196978416Y-112082952D01*
X198082952Y-110978415D01*
X198136629Y-110898081D01*
X198165084Y-110855495D01*
X198188518Y-110798920D01*
X198221659Y-110718912D01*
X198248961Y-110581655D01*
X198250500Y-110573918D01*
X198250500Y-109362230D01*
X198259143Y-109332793D01*
X198265667Y-109302804D01*
X198269422Y-109297787D01*
X198270185Y-109295191D01*
X198286818Y-109274550D01*
X198307441Y-109253927D01*
X198338934Y-109222433D01*
X198400255Y-109188949D01*
X198469946Y-109193933D01*
G37*
%TD.AperFunction*%
%TA.AperFunction,Conductor*%
G36*
X191113181Y-103299628D02*
G01*
X191145656Y-103356673D01*
X191149500Y-103371753D01*
X191149501Y-103397872D01*
X191155909Y-103457483D01*
X191204741Y-103588408D01*
X191206387Y-103594864D01*
X191205361Y-103623391D01*
X191207397Y-103651859D01*
X191204121Y-103657857D01*
X191203876Y-103664689D01*
X191187590Y-103688131D01*
X191173912Y-103713182D01*
X191167912Y-103716457D01*
X191164013Y-103722071D01*
X191137640Y-103732987D01*
X191112589Y-103746666D01*
X191101788Y-103747827D01*
X191099455Y-103748793D01*
X191096974Y-103748344D01*
X191086231Y-103749500D01*
X190845296Y-103749500D01*
X190778257Y-103729815D01*
X190732502Y-103677011D01*
X190721678Y-103615772D01*
X190721717Y-103615270D01*
X190089408Y-102982962D01*
X190152993Y-102965925D01*
X190267007Y-102900099D01*
X190360099Y-102807007D01*
X190425925Y-102692993D01*
X190442962Y-102629408D01*
X191113181Y-103299628D01*
G37*
%TD.AperFunction*%
%TA.AperFunction,Conductor*%
G36*
X204442539Y-100520185D02*
G01*
X204488294Y-100572989D01*
X204499500Y-100624500D01*
X204499500Y-123375500D01*
X204479815Y-123442539D01*
X204427011Y-123488294D01*
X204375500Y-123499500D01*
X177624500Y-123499500D01*
X177557461Y-123479815D01*
X177511706Y-123427011D01*
X177500500Y-123375500D01*
X177500500Y-119602155D01*
X179650000Y-119602155D01*
X179650000Y-120250000D01*
X180566988Y-120250000D01*
X180534075Y-120307007D01*
X180500000Y-120434174D01*
X180500000Y-120565826D01*
X180534075Y-120692993D01*
X180566988Y-120750000D01*
X179650000Y-120750000D01*
X179650000Y-121397844D01*
X179656401Y-121457372D01*
X179656403Y-121457379D01*
X179706645Y-121592086D01*
X179706649Y-121592093D01*
X179792809Y-121707187D01*
X179792812Y-121707190D01*
X179907906Y-121793350D01*
X179907913Y-121793354D01*
X180042620Y-121843596D01*
X180042627Y-121843598D01*
X180102155Y-121849999D01*
X180102172Y-121850000D01*
X180750000Y-121850000D01*
X180750000Y-120933012D01*
X180807007Y-120965925D01*
X180934174Y-121000000D01*
X181065826Y-121000000D01*
X181192993Y-120965925D01*
X181250000Y-120933012D01*
X181250000Y-121850000D01*
X181897828Y-121850000D01*
X181897844Y-121849999D01*
X181957372Y-121843598D01*
X181957379Y-121843596D01*
X182092086Y-121793354D01*
X182092093Y-121793350D01*
X182207187Y-121707190D01*
X182207190Y-121707187D01*
X182293350Y-121592093D01*
X182293354Y-121592086D01*
X182343596Y-121457379D01*
X182343598Y-121457372D01*
X182349999Y-121397844D01*
X182350000Y-121397827D01*
X182350000Y-120750000D01*
X181433012Y-120750000D01*
X181465925Y-120692993D01*
X181500000Y-120565826D01*
X181500000Y-120434174D01*
X181465925Y-120307007D01*
X181433012Y-120250000D01*
X182350000Y-120250000D01*
X182350000Y-119602172D01*
X182349999Y-119602155D01*
X182343598Y-119542627D01*
X182343596Y-119542620D01*
X182293354Y-119407913D01*
X182293350Y-119407906D01*
X182207190Y-119292812D01*
X182207187Y-119292809D01*
X182092093Y-119206649D01*
X182092086Y-119206645D01*
X181957379Y-119156403D01*
X181957372Y-119156401D01*
X181897844Y-119150000D01*
X181250000Y-119150000D01*
X181250000Y-120066988D01*
X181192993Y-120034075D01*
X181065826Y-120000000D01*
X180934174Y-120000000D01*
X180807007Y-120034075D01*
X180750000Y-120066988D01*
X180750000Y-119150000D01*
X180102155Y-119150000D01*
X180042627Y-119156401D01*
X180042620Y-119156403D01*
X179907913Y-119206645D01*
X179907906Y-119206649D01*
X179792812Y-119292809D01*
X179792809Y-119292812D01*
X179706649Y-119407906D01*
X179706645Y-119407913D01*
X179656403Y-119542620D01*
X179656401Y-119542627D01*
X179650000Y-119602155D01*
X177500500Y-119602155D01*
X177500500Y-119074154D01*
X184525001Y-119074154D01*
X184535319Y-119175152D01*
X184589546Y-119338800D01*
X184589551Y-119338811D01*
X184680052Y-119485534D01*
X184680055Y-119485538D01*
X184801961Y-119607444D01*
X184801965Y-119607447D01*
X184948688Y-119697948D01*
X184948699Y-119697953D01*
X185112347Y-119752180D01*
X185213352Y-119762499D01*
X185250000Y-119762499D01*
X185750000Y-119762499D01*
X185786640Y-119762499D01*
X185786654Y-119762498D01*
X185887652Y-119752180D01*
X186051300Y-119697953D01*
X186051311Y-119697948D01*
X186198034Y-119607447D01*
X186198038Y-119607444D01*
X186319944Y-119485538D01*
X186319947Y-119485534D01*
X186410448Y-119338811D01*
X186410453Y-119338800D01*
X186464680Y-119175152D01*
X186474999Y-119074154D01*
X186475000Y-119074141D01*
X186475000Y-118975000D01*
X185750000Y-118975000D01*
X185750000Y-119762499D01*
X185250000Y-119762499D01*
X185250000Y-118975000D01*
X184525001Y-118975000D01*
X184525001Y-119074154D01*
X177500500Y-119074154D01*
X177500500Y-113452135D01*
X184199500Y-113452135D01*
X184199500Y-115047870D01*
X184199501Y-115047876D01*
X184205908Y-115107483D01*
X184256202Y-115242328D01*
X184256206Y-115242335D01*
X184342452Y-115357544D01*
X184342455Y-115357547D01*
X184457664Y-115443793D01*
X184457671Y-115443797D01*
X184592516Y-115494091D01*
X184638757Y-115499063D01*
X184703307Y-115525801D01*
X184743155Y-115583194D01*
X184749500Y-115622352D01*
X184749500Y-116117948D01*
X184729815Y-116184987D01*
X184713181Y-116205629D01*
X184679661Y-116239148D01*
X184589093Y-116385981D01*
X184589092Y-116385984D01*
X184534826Y-116549747D01*
X184534826Y-116549748D01*
X184534825Y-116549748D01*
X184524500Y-116650815D01*
X184524500Y-117349169D01*
X184524501Y-117349187D01*
X184534825Y-117450252D01*
X184565463Y-117542710D01*
X184589092Y-117614016D01*
X184679659Y-117760849D01*
X184679661Y-117760851D01*
X184693982Y-117775172D01*
X184727467Y-117836495D01*
X184722483Y-117906187D01*
X184693985Y-117950532D01*
X184680052Y-117964465D01*
X184589551Y-118111188D01*
X184589546Y-118111199D01*
X184535319Y-118274847D01*
X184525000Y-118375845D01*
X184525000Y-118475000D01*
X186474999Y-118475000D01*
X186474999Y-118375860D01*
X186474998Y-118375845D01*
X186464680Y-118274847D01*
X186410453Y-118111199D01*
X186410448Y-118111188D01*
X186319947Y-117964465D01*
X186319944Y-117964461D01*
X186306017Y-117950534D01*
X186272532Y-117889211D01*
X186277516Y-117819519D01*
X186306017Y-117775172D01*
X186320340Y-117760850D01*
X186410908Y-117614016D01*
X186465174Y-117450253D01*
X186475500Y-117349177D01*
X186475499Y-116999986D01*
X188625001Y-116999986D01*
X188635494Y-117102697D01*
X188690641Y-117269119D01*
X188690643Y-117269124D01*
X188782684Y-117418345D01*
X188906654Y-117542315D01*
X189055875Y-117634356D01*
X189055880Y-117634358D01*
X189222302Y-117689505D01*
X189222309Y-117689506D01*
X189325019Y-117699999D01*
X189449999Y-117699999D01*
X189450000Y-117699998D01*
X189450000Y-116750000D01*
X188625001Y-116750000D01*
X188625001Y-116999986D01*
X186475499Y-116999986D01*
X186475499Y-116650824D01*
X186465174Y-116549747D01*
X186420026Y-116413502D01*
X186417625Y-116343676D01*
X186453356Y-116283634D01*
X186515877Y-116252441D01*
X186537733Y-116250500D01*
X187695396Y-116250500D01*
X187742844Y-116259937D01*
X187766503Y-116269737D01*
X187766508Y-116269738D01*
X187766511Y-116269739D01*
X187921153Y-116300499D01*
X187921156Y-116300500D01*
X187921158Y-116300500D01*
X188078844Y-116300500D01*
X188078845Y-116300499D01*
X188233497Y-116269737D01*
X188379179Y-116209394D01*
X188379184Y-116209390D01*
X188379187Y-116209389D01*
X188432108Y-116174028D01*
X188498785Y-116153149D01*
X188566166Y-116171633D01*
X188612856Y-116223611D01*
X188617037Y-116242037D01*
X188625000Y-116250000D01*
X189450000Y-116250000D01*
X189450000Y-115300000D01*
X189325027Y-115300000D01*
X189325012Y-115300001D01*
X189222302Y-115310494D01*
X189055880Y-115365641D01*
X189055871Y-115365646D01*
X188970468Y-115418322D01*
X188903075Y-115436762D01*
X188836412Y-115415839D01*
X188791643Y-115362196D01*
X188783755Y-115336974D01*
X188776301Y-115299500D01*
X188769737Y-115266503D01*
X188769735Y-115266498D01*
X188709397Y-115120827D01*
X188709390Y-115120814D01*
X188621789Y-114989711D01*
X188621786Y-114989707D01*
X188510292Y-114878213D01*
X188510288Y-114878210D01*
X188379185Y-114790609D01*
X188379172Y-114790602D01*
X188233501Y-114730264D01*
X188233489Y-114730261D01*
X188078845Y-114699500D01*
X188078842Y-114699500D01*
X187921158Y-114699500D01*
X187921155Y-114699500D01*
X187766511Y-114730260D01*
X187766506Y-114730262D01*
X187766504Y-114730262D01*
X187766503Y-114730263D01*
X187742844Y-114740062D01*
X187695396Y-114749500D01*
X186924500Y-114749500D01*
X186857461Y-114729815D01*
X186811706Y-114677011D01*
X186800500Y-114625500D01*
X186800499Y-113452129D01*
X186800498Y-113452123D01*
X186800497Y-113452116D01*
X186794091Y-113392517D01*
X186792320Y-113387770D01*
X186743797Y-113257671D01*
X186743793Y-113257664D01*
X186657547Y-113142455D01*
X186657544Y-113142452D01*
X186542335Y-113056206D01*
X186542328Y-113056202D01*
X186407482Y-113005908D01*
X186407483Y-113005908D01*
X186347883Y-112999501D01*
X186347881Y-112999500D01*
X186347873Y-112999500D01*
X186347864Y-112999500D01*
X184652129Y-112999500D01*
X184652123Y-112999501D01*
X184592516Y-113005908D01*
X184457671Y-113056202D01*
X184457664Y-113056206D01*
X184342455Y-113142452D01*
X184342452Y-113142455D01*
X184256206Y-113257664D01*
X184256202Y-113257671D01*
X184205909Y-113392516D01*
X184205908Y-113392516D01*
X184202663Y-113422705D01*
X184199501Y-113452123D01*
X184199500Y-113452135D01*
X177500500Y-113452135D01*
X177500500Y-110581647D01*
X179899500Y-110581647D01*
X179899500Y-110581655D01*
X179899501Y-111128333D01*
X179899501Y-111128355D01*
X179909650Y-111227707D01*
X179909651Y-111227710D01*
X179962996Y-111388694D01*
X179963001Y-111388705D01*
X180052029Y-111533040D01*
X180052032Y-111533044D01*
X180171955Y-111652967D01*
X180171959Y-111652970D01*
X180316294Y-111741998D01*
X180316297Y-111741999D01*
X180316303Y-111742003D01*
X180477292Y-111795349D01*
X180576655Y-111805500D01*
X181423344Y-111805499D01*
X181423352Y-111805498D01*
X181423355Y-111805498D01*
X181477760Y-111799940D01*
X181522708Y-111795349D01*
X181683697Y-111742003D01*
X181828044Y-111652968D01*
X181839193Y-111641819D01*
X181900516Y-111608334D01*
X181926874Y-111605500D01*
X183017717Y-111605500D01*
X183084756Y-111625185D01*
X183086555Y-111626363D01*
X183144505Y-111665084D01*
X183144506Y-111665084D01*
X183144507Y-111665085D01*
X183281082Y-111721656D01*
X183281087Y-111721658D01*
X183320983Y-111729593D01*
X183353797Y-111736121D01*
X183415708Y-111768505D01*
X183445788Y-111814405D01*
X183456202Y-111842328D01*
X183456206Y-111842335D01*
X183542452Y-111957544D01*
X183542455Y-111957547D01*
X183657664Y-112043793D01*
X183657671Y-112043797D01*
X183792517Y-112094091D01*
X183792516Y-112094091D01*
X183799444Y-112094835D01*
X183852127Y-112100500D01*
X185147872Y-112100499D01*
X185207483Y-112094091D01*
X185342331Y-112043796D01*
X185425689Y-111981393D01*
X185491153Y-111956977D01*
X185559426Y-111971828D01*
X185574311Y-111981394D01*
X185657669Y-112043796D01*
X185657671Y-112043797D01*
X185792517Y-112094091D01*
X185792516Y-112094091D01*
X185799444Y-112094835D01*
X185852127Y-112100500D01*
X187147872Y-112100499D01*
X187207483Y-112094091D01*
X187342331Y-112043796D01*
X187457546Y-111957546D01*
X187543796Y-111842331D01*
X187557533Y-111805500D01*
X187585258Y-111731167D01*
X187627129Y-111675233D01*
X187692593Y-111650816D01*
X187701440Y-111650500D01*
X189073126Y-111650500D01*
X189140165Y-111670185D01*
X189160807Y-111686819D01*
X189171955Y-111697967D01*
X189171959Y-111697970D01*
X189316294Y-111786998D01*
X189316297Y-111786999D01*
X189316303Y-111787003D01*
X189477292Y-111840349D01*
X189576655Y-111850500D01*
X190423344Y-111850499D01*
X190423352Y-111850498D01*
X190423355Y-111850498D01*
X190477760Y-111844940D01*
X190522708Y-111840349D01*
X190683697Y-111787003D01*
X190828044Y-111697968D01*
X190947968Y-111578044D01*
X191037003Y-111433697D01*
X191090349Y-111272708D01*
X191100500Y-111173345D01*
X191100499Y-110626656D01*
X191090349Y-110527292D01*
X191037003Y-110366303D01*
X190994752Y-110297805D01*
X190994751Y-110297801D01*
X190947970Y-110221959D01*
X190947967Y-110221955D01*
X190828044Y-110102032D01*
X190828040Y-110102029D01*
X190683705Y-110013001D01*
X190683699Y-110012998D01*
X190683697Y-110012997D01*
X190613412Y-109989707D01*
X190522709Y-109959651D01*
X190423346Y-109949500D01*
X189576662Y-109949500D01*
X189576644Y-109949501D01*
X189477292Y-109959650D01*
X189477289Y-109959651D01*
X189316305Y-110012996D01*
X189316294Y-110013001D01*
X189171959Y-110102029D01*
X189171955Y-110102032D01*
X189160807Y-110113181D01*
X189099484Y-110146666D01*
X189073126Y-110149500D01*
X187599751Y-110149500D01*
X187532712Y-110129815D01*
X187500485Y-110099812D01*
X187457548Y-110042457D01*
X187457546Y-110042454D01*
X187438468Y-110028172D01*
X187342335Y-109956206D01*
X187342328Y-109956202D01*
X187207482Y-109905908D01*
X187207483Y-109905908D01*
X187147883Y-109899501D01*
X187147881Y-109899500D01*
X187147873Y-109899500D01*
X187147864Y-109899500D01*
X185852129Y-109899500D01*
X185852123Y-109899501D01*
X185792516Y-109905908D01*
X185657671Y-109956202D01*
X185657669Y-109956203D01*
X185586074Y-110009799D01*
X185581804Y-110012997D01*
X185574311Y-110018606D01*
X185508847Y-110043023D01*
X185440574Y-110028172D01*
X185425689Y-110018606D01*
X185418196Y-110012997D01*
X185358090Y-109968001D01*
X185342330Y-109956203D01*
X185342328Y-109956202D01*
X185207482Y-109905908D01*
X185207483Y-109905908D01*
X185147883Y-109899501D01*
X185147881Y-109899500D01*
X185147873Y-109899500D01*
X185147864Y-109899500D01*
X183852129Y-109899500D01*
X183852123Y-109899501D01*
X183792516Y-109905908D01*
X183657671Y-109956202D01*
X183657664Y-109956206D01*
X183542457Y-110042451D01*
X183542451Y-110042457D01*
X183533205Y-110054809D01*
X183477272Y-110096681D01*
X183433937Y-110104500D01*
X181926874Y-110104500D01*
X181859835Y-110084815D01*
X181839193Y-110068181D01*
X181828044Y-110057032D01*
X181828040Y-110057029D01*
X181683705Y-109968001D01*
X181683699Y-109967998D01*
X181683697Y-109967997D01*
X181642066Y-109954202D01*
X181522709Y-109914651D01*
X181423346Y-109904500D01*
X180576662Y-109904500D01*
X180576644Y-109904501D01*
X180477292Y-109914650D01*
X180477289Y-109914651D01*
X180316305Y-109967996D01*
X180316294Y-109968001D01*
X180171959Y-110057029D01*
X180171955Y-110057032D01*
X180052032Y-110176955D01*
X180052029Y-110176959D01*
X179963001Y-110321294D01*
X179962996Y-110321305D01*
X179909651Y-110482290D01*
X179899500Y-110581647D01*
X177500500Y-110581647D01*
X177500500Y-107281647D01*
X179899500Y-107281647D01*
X179899500Y-107828337D01*
X179899501Y-107828355D01*
X179909650Y-107927707D01*
X179909651Y-107927710D01*
X179962996Y-108088694D01*
X179963001Y-108088705D01*
X180052029Y-108233040D01*
X180052032Y-108233044D01*
X180171955Y-108352967D01*
X180171959Y-108352970D01*
X180316294Y-108441998D01*
X180316297Y-108441999D01*
X180316303Y-108442003D01*
X180477292Y-108495349D01*
X180576655Y-108505500D01*
X181423344Y-108505499D01*
X181423352Y-108505498D01*
X181423355Y-108505498D01*
X181477760Y-108499940D01*
X181522708Y-108495349D01*
X181683697Y-108442003D01*
X181828044Y-108352968D01*
X181839193Y-108341819D01*
X181900516Y-108308334D01*
X181926874Y-108305500D01*
X182442770Y-108305500D01*
X182509809Y-108325185D01*
X182530451Y-108341819D01*
X182771586Y-108582954D01*
X182801058Y-108602645D01*
X182845270Y-108632186D01*
X182894505Y-108665084D01*
X182894506Y-108665084D01*
X182894507Y-108665085D01*
X182894509Y-108665086D01*
X182996728Y-108707426D01*
X183031087Y-108721658D01*
X183031091Y-108721658D01*
X183031092Y-108721659D01*
X183176079Y-108750500D01*
X183176082Y-108750500D01*
X183176083Y-108750500D01*
X183323917Y-108750500D01*
X184096042Y-108750500D01*
X184163081Y-108770185D01*
X184201580Y-108809402D01*
X184207288Y-108818656D01*
X184331344Y-108942712D01*
X184480666Y-109034814D01*
X184647203Y-109089999D01*
X184749991Y-109100500D01*
X185750008Y-109100499D01*
X185750016Y-109100498D01*
X185750019Y-109100498D01*
X185806302Y-109094748D01*
X185852797Y-109089999D01*
X186019334Y-109034814D01*
X186168656Y-108942712D01*
X186292712Y-108818656D01*
X186298420Y-108809402D01*
X186350368Y-108762678D01*
X186403958Y-108750500D01*
X187573920Y-108750500D01*
X187671462Y-108731096D01*
X187718913Y-108721658D01*
X187855495Y-108665084D01*
X187904729Y-108632186D01*
X187904734Y-108632183D01*
X187929071Y-108615921D01*
X187978416Y-108582952D01*
X188174549Y-108386819D01*
X188235872Y-108353334D01*
X188262230Y-108350500D01*
X189073126Y-108350500D01*
X189140165Y-108370185D01*
X189160807Y-108386819D01*
X189171955Y-108397967D01*
X189171959Y-108397970D01*
X189316294Y-108486998D01*
X189316297Y-108486999D01*
X189316303Y-108487003D01*
X189477292Y-108540349D01*
X189576655Y-108550500D01*
X190423344Y-108550499D01*
X190423352Y-108550498D01*
X190423355Y-108550498D01*
X190477760Y-108544940D01*
X190522708Y-108540349D01*
X190683697Y-108487003D01*
X190828044Y-108397968D01*
X190839193Y-108386819D01*
X190900516Y-108353334D01*
X190926874Y-108350500D01*
X191973920Y-108350500D01*
X192071462Y-108331096D01*
X192118913Y-108321658D01*
X192255495Y-108265084D01*
X192262897Y-108260137D01*
X192284327Y-108248682D01*
X192379179Y-108209394D01*
X192510289Y-108121789D01*
X192621789Y-108010289D01*
X192709394Y-107879179D01*
X192769737Y-107733497D01*
X192800500Y-107578842D01*
X192800500Y-107439998D01*
X193577704Y-107439998D01*
X193577705Y-107440000D01*
X194800000Y-107440000D01*
X195300000Y-107440000D01*
X196522295Y-107440000D01*
X196522295Y-107439998D01*
X196522100Y-107437513D01*
X196476281Y-107279801D01*
X196392685Y-107138447D01*
X196392678Y-107138438D01*
X196276561Y-107022321D01*
X196276552Y-107022314D01*
X196135196Y-106938717D01*
X196135193Y-106938716D01*
X195977495Y-106892900D01*
X195977489Y-106892899D01*
X195940649Y-106890000D01*
X195300000Y-106890000D01*
X195300000Y-107440000D01*
X194800000Y-107440000D01*
X194800000Y-106890000D01*
X194159350Y-106890000D01*
X194122510Y-106892899D01*
X194122504Y-106892900D01*
X193964806Y-106938716D01*
X193964803Y-106938717D01*
X193823447Y-107022314D01*
X193823438Y-107022321D01*
X193707321Y-107138438D01*
X193707314Y-107138447D01*
X193623718Y-107279801D01*
X193577899Y-107437513D01*
X193577704Y-107439998D01*
X192800500Y-107439998D01*
X192800500Y-107421158D01*
X192800500Y-107421155D01*
X192800499Y-107421153D01*
X192772343Y-107279606D01*
X192769737Y-107266503D01*
X192760937Y-107245257D01*
X192709397Y-107120827D01*
X192709390Y-107120814D01*
X192621789Y-106989711D01*
X192621786Y-106989707D01*
X192510292Y-106878213D01*
X192510288Y-106878210D01*
X192379185Y-106790609D01*
X192379172Y-106790602D01*
X192233501Y-106730264D01*
X192233489Y-106730261D01*
X192078845Y-106699500D01*
X192078842Y-106699500D01*
X191921158Y-106699500D01*
X191921155Y-106699500D01*
X191766510Y-106730261D01*
X191766498Y-106730264D01*
X191620827Y-106790602D01*
X191620820Y-106790606D01*
X191600027Y-106804500D01*
X191563955Y-106828602D01*
X191497279Y-106849480D01*
X191495065Y-106849500D01*
X190926874Y-106849500D01*
X190859835Y-106829815D01*
X190839193Y-106813181D01*
X190828044Y-106802032D01*
X190828040Y-106802029D01*
X190683705Y-106713001D01*
X190683699Y-106712998D01*
X190683697Y-106712997D01*
X190683694Y-106712996D01*
X190522709Y-106659651D01*
X190423346Y-106649500D01*
X189576662Y-106649500D01*
X189576644Y-106649501D01*
X189477292Y-106659650D01*
X189477289Y-106659651D01*
X189316305Y-106712996D01*
X189316294Y-106713001D01*
X189171959Y-106802029D01*
X189171955Y-106802032D01*
X189160807Y-106813181D01*
X189099484Y-106846666D01*
X189073126Y-106849500D01*
X187826080Y-106849500D01*
X187681092Y-106878340D01*
X187681082Y-106878343D01*
X187544511Y-106934912D01*
X187544498Y-106934919D01*
X187421584Y-107017048D01*
X187421580Y-107017051D01*
X187225452Y-107213181D01*
X187164129Y-107246666D01*
X187137771Y-107249500D01*
X186403958Y-107249500D01*
X186336919Y-107229815D01*
X186313341Y-107210144D01*
X186304906Y-107201114D01*
X186292712Y-107181344D01*
X186197544Y-107086176D01*
X186196113Y-107084644D01*
X186181327Y-107055226D01*
X186165564Y-107026358D01*
X186165720Y-107024174D01*
X186164736Y-107022216D01*
X186168200Y-106989492D01*
X186170548Y-106956666D01*
X186171898Y-106954565D01*
X186172092Y-106952734D01*
X186177011Y-106946608D01*
X186199049Y-106912319D01*
X186241553Y-106869815D01*
X186292712Y-106818656D01*
X186384814Y-106669334D01*
X186439999Y-106502797D01*
X186450500Y-106400009D01*
X186450499Y-105599992D01*
X186439999Y-105497203D01*
X186412264Y-105413504D01*
X186409862Y-105343676D01*
X186445594Y-105283634D01*
X186508114Y-105252441D01*
X186529970Y-105250500D01*
X192426082Y-105250500D01*
X192573918Y-105250500D01*
X197887770Y-105250500D01*
X197954809Y-105270185D01*
X197975451Y-105286819D01*
X199213181Y-106524549D01*
X199227884Y-106551476D01*
X199244477Y-106577295D01*
X199245368Y-106583495D01*
X199246666Y-106585872D01*
X199249500Y-106612230D01*
X199249500Y-106765500D01*
X199229815Y-106832539D01*
X199177011Y-106878294D01*
X199125500Y-106889500D01*
X199109298Y-106889500D01*
X199072432Y-106892401D01*
X199072426Y-106892402D01*
X198927267Y-106934576D01*
X198892672Y-106939500D01*
X198736080Y-106939500D01*
X198591092Y-106968340D01*
X198591082Y-106968343D01*
X198454509Y-107024913D01*
X198454507Y-107024914D01*
X198444677Y-107031483D01*
X198439692Y-107034814D01*
X198331579Y-107107051D01*
X198331578Y-107107052D01*
X196917048Y-108521583D01*
X196904510Y-108540349D01*
X196876045Y-108582951D01*
X196834919Y-108644499D01*
X196834912Y-108644511D01*
X196778343Y-108781082D01*
X196778340Y-108781092D01*
X196771117Y-108817406D01*
X196738732Y-108879317D01*
X196678015Y-108913891D01*
X196608246Y-108910150D01*
X196551574Y-108869284D01*
X196525993Y-108804265D01*
X196525500Y-108793214D01*
X196525500Y-108744313D01*
X196525499Y-108744298D01*
X196523717Y-108721658D01*
X196522598Y-108707431D01*
X196510295Y-108665085D01*
X196477005Y-108550500D01*
X196476744Y-108549602D01*
X196393081Y-108408135D01*
X196393078Y-108408132D01*
X196388298Y-108401969D01*
X196390635Y-108400155D01*
X196363798Y-108351050D01*
X196368756Y-108281356D01*
X196389554Y-108248998D01*
X196387903Y-108247717D01*
X196392686Y-108241550D01*
X196476281Y-108100198D01*
X196522100Y-107942486D01*
X196522295Y-107940001D01*
X196522295Y-107940000D01*
X193577705Y-107940000D01*
X193577704Y-107940001D01*
X193577899Y-107942488D01*
X193577900Y-107942494D01*
X193621018Y-108090905D01*
X193620819Y-108160775D01*
X193582877Y-108219445D01*
X193519238Y-108248288D01*
X193501942Y-108249500D01*
X192926076Y-108249500D01*
X192897242Y-108255234D01*
X192897243Y-108255235D01*
X192781093Y-108278339D01*
X192781083Y-108278342D01*
X192701081Y-108311479D01*
X192701082Y-108311480D01*
X192644505Y-108334915D01*
X192591720Y-108370185D01*
X192566826Y-108386819D01*
X192562372Y-108389795D01*
X192521585Y-108417047D01*
X192521581Y-108417050D01*
X191684703Y-109253927D01*
X191644480Y-109280805D01*
X191620819Y-109290606D01*
X191620818Y-109290607D01*
X191489715Y-109378207D01*
X191489707Y-109378213D01*
X191378213Y-109489707D01*
X191378210Y-109489711D01*
X191290609Y-109620814D01*
X191290602Y-109620827D01*
X191230264Y-109766498D01*
X191230261Y-109766510D01*
X191199500Y-109921153D01*
X191199500Y-110078846D01*
X191224439Y-110204223D01*
X191224440Y-110204227D01*
X191230263Y-110233497D01*
X191290606Y-110379179D01*
X191311486Y-110410429D01*
X191311488Y-110410432D01*
X191378210Y-110510288D01*
X191378213Y-110510292D01*
X191489707Y-110621786D01*
X191489711Y-110621789D01*
X191620814Y-110709390D01*
X191620827Y-110709397D01*
X191766498Y-110769735D01*
X191766503Y-110769737D01*
X191818222Y-110780024D01*
X191874603Y-110791240D01*
X191876470Y-110792216D01*
X191878575Y-110792098D01*
X191907290Y-110808338D01*
X191936514Y-110823625D01*
X191937556Y-110825455D01*
X191939392Y-110826494D01*
X191954769Y-110855684D01*
X191971088Y-110884340D01*
X191970975Y-110886444D01*
X191971958Y-110888310D01*
X191969114Y-110921171D01*
X191967349Y-110954110D01*
X191966058Y-110956481D01*
X191965934Y-110957920D01*
X191961992Y-110963953D01*
X191948559Y-110988641D01*
X191943706Y-110994925D01*
X191917048Y-111021584D01*
X191880379Y-111076465D01*
X191878021Y-111079992D01*
X191878017Y-111079999D01*
X191834919Y-111144499D01*
X191834912Y-111144511D01*
X191778343Y-111281082D01*
X191778340Y-111281092D01*
X191749500Y-111426079D01*
X191749500Y-111426082D01*
X191749500Y-113823918D01*
X191749500Y-113823920D01*
X191749499Y-113823920D01*
X191778340Y-113968907D01*
X191778343Y-113968917D01*
X191834914Y-114105492D01*
X191867812Y-114154727D01*
X191867813Y-114154730D01*
X191917046Y-114228414D01*
X191917052Y-114228421D01*
X193226451Y-115537819D01*
X193259936Y-115599142D01*
X193254952Y-115668834D01*
X193213080Y-115724767D01*
X193147616Y-115749184D01*
X193138770Y-115749500D01*
X192840638Y-115749500D01*
X192773599Y-115729815D01*
X192735099Y-115690597D01*
X192667712Y-115581344D01*
X192543656Y-115457288D01*
X192394334Y-115365186D01*
X192227797Y-115310001D01*
X192227795Y-115310000D01*
X192125010Y-115299500D01*
X191374998Y-115299500D01*
X191374980Y-115299501D01*
X191272203Y-115310000D01*
X191272200Y-115310001D01*
X191105668Y-115365185D01*
X191105663Y-115365187D01*
X190956342Y-115457289D01*
X190832288Y-115581343D01*
X190832283Y-115581349D01*
X190830241Y-115584661D01*
X190828247Y-115586453D01*
X190827807Y-115587011D01*
X190827711Y-115586935D01*
X190778291Y-115631383D01*
X190709328Y-115642602D01*
X190645247Y-115614755D01*
X190619168Y-115584656D01*
X190617319Y-115581659D01*
X190617316Y-115581655D01*
X190493345Y-115457684D01*
X190344124Y-115365643D01*
X190344119Y-115365641D01*
X190177697Y-115310494D01*
X190177690Y-115310493D01*
X190074986Y-115300000D01*
X189950000Y-115300000D01*
X189950000Y-117699999D01*
X190074972Y-117699999D01*
X190074986Y-117699998D01*
X190177697Y-117689505D01*
X190344119Y-117634358D01*
X190344124Y-117634356D01*
X190493345Y-117542315D01*
X190617318Y-117418342D01*
X190619165Y-117415348D01*
X190620969Y-117413724D01*
X190621798Y-117412677D01*
X190621976Y-117412818D01*
X190671110Y-117368621D01*
X190740073Y-117357396D01*
X190804156Y-117385236D01*
X190830243Y-117415341D01*
X190832288Y-117418656D01*
X190956344Y-117542712D01*
X191105666Y-117634814D01*
X191272203Y-117689999D01*
X191374991Y-117700500D01*
X192125008Y-117700499D01*
X192125016Y-117700498D01*
X192125019Y-117700498D01*
X192181302Y-117694748D01*
X192227797Y-117689999D01*
X192394334Y-117634814D01*
X192543656Y-117542712D01*
X192667712Y-117418656D01*
X192735099Y-117309402D01*
X192787047Y-117262679D01*
X192840638Y-117250500D01*
X193884362Y-117250500D01*
X193951401Y-117270185D01*
X193989899Y-117309401D01*
X194057288Y-117418656D01*
X194181344Y-117542712D01*
X194330666Y-117634814D01*
X194497203Y-117689999D01*
X194599991Y-117700500D01*
X195400008Y-117700499D01*
X195400016Y-117700498D01*
X195400019Y-117700498D01*
X195456302Y-117694748D01*
X195502797Y-117689999D01*
X195669334Y-117634814D01*
X195818656Y-117542712D01*
X195912319Y-117449049D01*
X195973642Y-117415564D01*
X196043334Y-117420548D01*
X196087681Y-117449049D01*
X196181344Y-117542712D01*
X196330666Y-117634814D01*
X196497203Y-117689999D01*
X196599991Y-117700500D01*
X197400008Y-117700499D01*
X197400016Y-117700498D01*
X197400019Y-117700498D01*
X197456302Y-117694748D01*
X197502797Y-117689999D01*
X197669334Y-117634814D01*
X197818656Y-117542712D01*
X197942712Y-117418656D01*
X198010099Y-117309402D01*
X198062047Y-117262679D01*
X198115638Y-117250500D01*
X198637770Y-117250500D01*
X198704809Y-117270185D01*
X198725451Y-117286819D01*
X200443972Y-119005340D01*
X200477457Y-119066663D01*
X200472473Y-119136355D01*
X200430601Y-119192288D01*
X200414884Y-119200909D01*
X200415454Y-119201953D01*
X200407664Y-119206206D01*
X200292455Y-119292452D01*
X200292452Y-119292455D01*
X200206206Y-119407664D01*
X200206202Y-119407671D01*
X200155908Y-119542517D01*
X200149501Y-119602116D01*
X200149501Y-119602123D01*
X200149500Y-119602135D01*
X200149500Y-121397870D01*
X200149501Y-121397876D01*
X200155908Y-121457483D01*
X200206202Y-121592328D01*
X200206206Y-121592335D01*
X200292452Y-121707544D01*
X200292455Y-121707547D01*
X200407664Y-121793793D01*
X200407671Y-121793797D01*
X200542517Y-121844091D01*
X200542516Y-121844091D01*
X200549444Y-121844835D01*
X200602127Y-121850500D01*
X202397872Y-121850499D01*
X202457483Y-121844091D01*
X202592331Y-121793796D01*
X202707546Y-121707546D01*
X202793796Y-121592331D01*
X202844091Y-121457483D01*
X202850500Y-121397873D01*
X202850499Y-119602128D01*
X202844091Y-119542517D01*
X202822839Y-119485538D01*
X202793797Y-119407671D01*
X202793793Y-119407664D01*
X202707547Y-119292455D01*
X202707544Y-119292452D01*
X202592335Y-119206206D01*
X202592328Y-119206202D01*
X202457482Y-119155908D01*
X202457483Y-119155908D01*
X202397883Y-119149501D01*
X202397881Y-119149500D01*
X202397873Y-119149500D01*
X202397865Y-119149500D01*
X202374500Y-119149500D01*
X202307461Y-119129815D01*
X202261706Y-119077011D01*
X202250500Y-119025500D01*
X202250500Y-118926079D01*
X202221659Y-118781092D01*
X202221658Y-118781091D01*
X202221658Y-118781087D01*
X202165084Y-118644505D01*
X202132186Y-118595270D01*
X202132185Y-118595268D01*
X202082956Y-118521589D01*
X202082952Y-118521584D01*
X199478421Y-115917052D01*
X199478414Y-115917046D01*
X199404729Y-115867812D01*
X199404729Y-115867813D01*
X199355491Y-115834913D01*
X199218917Y-115778343D01*
X199218907Y-115778340D01*
X199073920Y-115749500D01*
X199073918Y-115749500D01*
X198115638Y-115749500D01*
X198048599Y-115729815D01*
X198010099Y-115690597D01*
X197942712Y-115581344D01*
X197818656Y-115457288D01*
X197669334Y-115365186D01*
X197669332Y-115365185D01*
X197669325Y-115365181D01*
X197666126Y-115363689D01*
X197658534Y-115358025D01*
X197652688Y-115356381D01*
X197640629Y-115344669D01*
X197625754Y-115333573D01*
X197620139Y-115327239D01*
X197582951Y-115271584D01*
X197478416Y-115167049D01*
X197301074Y-114989707D01*
X196961534Y-114650166D01*
X196928049Y-114588843D01*
X196933033Y-114519151D01*
X196974905Y-114463218D01*
X197010212Y-114444779D01*
X197113798Y-114410454D01*
X197113811Y-114410448D01*
X197260535Y-114319947D01*
X197274460Y-114306021D01*
X197335782Y-114272533D01*
X197405473Y-114277514D01*
X197449827Y-114306017D01*
X197464150Y-114320340D01*
X197610984Y-114410908D01*
X197774747Y-114465174D01*
X197875823Y-114475500D01*
X198574176Y-114475499D01*
X198574184Y-114475498D01*
X198574187Y-114475498D01*
X198629530Y-114469844D01*
X198675253Y-114465174D01*
X198839016Y-114410908D01*
X198985850Y-114320340D01*
X199019371Y-114286819D01*
X199080694Y-114253334D01*
X199107052Y-114250500D01*
X199573920Y-114250500D01*
X199684949Y-114228414D01*
X199718913Y-114221658D01*
X199855495Y-114165084D01*
X199904729Y-114132186D01*
X199911306Y-114127792D01*
X199929071Y-114115921D01*
X199978416Y-114082952D01*
X200582952Y-113478416D01*
X200640347Y-113392517D01*
X200665084Y-113355495D01*
X200721658Y-113218913D01*
X200736867Y-113142454D01*
X200750500Y-113073920D01*
X200750500Y-112424500D01*
X200770185Y-112357461D01*
X200822989Y-112311706D01*
X200874500Y-112300500D01*
X200890686Y-112300500D01*
X200890694Y-112300500D01*
X200927569Y-112297598D01*
X200927571Y-112297597D01*
X200927573Y-112297597D01*
X200969191Y-112285505D01*
X201085398Y-112251744D01*
X201226865Y-112168081D01*
X201343081Y-112051865D01*
X201426744Y-111910398D01*
X201462595Y-111786998D01*
X201472597Y-111752573D01*
X201472598Y-111752567D01*
X201473077Y-111746485D01*
X201475500Y-111715694D01*
X201475500Y-111284306D01*
X201475500Y-111281871D01*
X201476345Y-111281871D01*
X201484128Y-111251376D01*
X201492556Y-111217794D01*
X201492744Y-111217617D01*
X201492808Y-111217367D01*
X201518221Y-111193704D01*
X201543501Y-111169978D01*
X201543754Y-111169931D01*
X201543944Y-111169755D01*
X201578088Y-111163593D01*
X201612210Y-111157296D01*
X201612535Y-111157378D01*
X201612704Y-111157348D01*
X201646898Y-111166075D01*
X201665816Y-111173911D01*
X201665817Y-111173912D01*
X201665818Y-111173912D01*
X201781088Y-111221659D01*
X201897241Y-111244763D01*
X201910654Y-111247431D01*
X201926081Y-111250500D01*
X201926082Y-111250500D01*
X201926083Y-111250500D01*
X202073918Y-111250500D01*
X202195396Y-111250500D01*
X202242844Y-111259937D01*
X202266503Y-111269737D01*
X202266508Y-111269738D01*
X202266511Y-111269739D01*
X202421153Y-111300499D01*
X202421156Y-111300500D01*
X202421158Y-111300500D01*
X202578844Y-111300500D01*
X202578845Y-111300499D01*
X202733497Y-111269737D01*
X202849571Y-111221658D01*
X202879172Y-111209397D01*
X202879172Y-111209396D01*
X202879179Y-111209394D01*
X203010289Y-111121789D01*
X203121789Y-111010289D01*
X203209394Y-110879179D01*
X203269737Y-110733497D01*
X203300500Y-110578842D01*
X203300500Y-110421158D01*
X203300500Y-110421155D01*
X203300499Y-110421153D01*
X203269737Y-110266503D01*
X203256066Y-110233497D01*
X203209397Y-110120827D01*
X203209390Y-110120814D01*
X203121789Y-109989711D01*
X203121786Y-109989707D01*
X203010292Y-109878213D01*
X203010284Y-109878207D01*
X202972712Y-109853102D01*
X202927906Y-109799490D01*
X202919199Y-109730165D01*
X202949353Y-109667138D01*
X202972712Y-109646898D01*
X202999279Y-109629145D01*
X203010289Y-109621789D01*
X203121789Y-109510289D01*
X203209394Y-109379179D01*
X203216415Y-109362230D01*
X203246082Y-109290606D01*
X203269737Y-109233497D01*
X203300500Y-109078842D01*
X203300500Y-108921158D01*
X203300500Y-108921155D01*
X203300499Y-108921153D01*
X203292177Y-108879317D01*
X203269737Y-108766503D01*
X203268153Y-108762678D01*
X203209397Y-108620827D01*
X203209390Y-108620814D01*
X203121789Y-108489711D01*
X203121786Y-108489707D01*
X203010292Y-108378213D01*
X203010288Y-108378210D01*
X202879185Y-108290609D01*
X202879172Y-108290602D01*
X202733501Y-108230264D01*
X202733489Y-108230261D01*
X202578845Y-108199500D01*
X202578842Y-108199500D01*
X202421158Y-108199500D01*
X202421157Y-108199500D01*
X202401460Y-108203418D01*
X202382864Y-108207117D01*
X202358673Y-108209500D01*
X201560200Y-108209500D01*
X201493161Y-108189815D01*
X201447406Y-108137011D01*
X201437462Y-108067853D01*
X201441124Y-108050905D01*
X201472597Y-107942573D01*
X201472598Y-107942567D01*
X201472604Y-107942488D01*
X201475500Y-107905694D01*
X201475500Y-107474306D01*
X201472598Y-107437431D01*
X201467870Y-107421158D01*
X201426745Y-107279606D01*
X201426744Y-107279603D01*
X201426744Y-107279602D01*
X201343081Y-107138135D01*
X201343079Y-107138133D01*
X201343076Y-107138129D01*
X201226870Y-107021923D01*
X201226862Y-107021917D01*
X201142532Y-106972045D01*
X201085398Y-106938256D01*
X201085397Y-106938255D01*
X201085396Y-106938255D01*
X201085393Y-106938254D01*
X200927573Y-106892402D01*
X200927567Y-106892401D01*
X200890701Y-106889500D01*
X200890694Y-106889500D01*
X200874500Y-106889500D01*
X200807461Y-106869815D01*
X200761706Y-106817011D01*
X200750500Y-106765500D01*
X200750500Y-106176080D01*
X200731925Y-106082703D01*
X200730178Y-106073918D01*
X200721659Y-106031088D01*
X200666171Y-105897130D01*
X200665418Y-105895005D01*
X200632186Y-105845270D01*
X200632185Y-105845268D01*
X200582956Y-105771589D01*
X200582952Y-105771584D01*
X198728421Y-103917052D01*
X198728414Y-103917046D01*
X198628818Y-103850499D01*
X198628817Y-103850499D01*
X198605495Y-103834916D01*
X198605488Y-103834912D01*
X198468917Y-103778343D01*
X198468907Y-103778340D01*
X198323920Y-103749500D01*
X198323918Y-103749500D01*
X193913769Y-103749500D01*
X193846730Y-103729815D01*
X193800975Y-103677011D01*
X193791031Y-103607853D01*
X193797587Y-103582167D01*
X193844091Y-103457482D01*
X193850500Y-103397873D01*
X193850499Y-102868872D01*
X199999500Y-102868872D01*
X199999500Y-103131127D01*
X200020436Y-103290140D01*
X200033730Y-103391116D01*
X200093792Y-103615270D01*
X200101602Y-103644418D01*
X200101605Y-103644428D01*
X200201953Y-103886690D01*
X200201958Y-103886700D01*
X200333075Y-104113803D01*
X200492718Y-104321851D01*
X200492726Y-104321860D01*
X200678140Y-104507274D01*
X200678148Y-104507281D01*
X200678149Y-104507282D01*
X200696788Y-104521584D01*
X200886196Y-104666924D01*
X201113299Y-104798041D01*
X201113309Y-104798046D01*
X201355571Y-104898394D01*
X201355581Y-104898398D01*
X201608884Y-104966270D01*
X201868880Y-105000500D01*
X201868887Y-105000500D01*
X202131113Y-105000500D01*
X202131120Y-105000500D01*
X202391116Y-104966270D01*
X202644419Y-104898398D01*
X202886697Y-104798043D01*
X203113803Y-104666924D01*
X203321851Y-104507282D01*
X203321855Y-104507277D01*
X203321860Y-104507274D01*
X203507274Y-104321860D01*
X203507277Y-104321855D01*
X203507282Y-104321851D01*
X203666924Y-104113803D01*
X203798043Y-103886697D01*
X203898398Y-103644419D01*
X203966270Y-103391116D01*
X204000500Y-103131120D01*
X204000500Y-102868880D01*
X203966270Y-102608884D01*
X203898398Y-102355581D01*
X203827274Y-102183872D01*
X203798046Y-102113309D01*
X203798041Y-102113299D01*
X203666924Y-101886196D01*
X203507281Y-101678148D01*
X203507274Y-101678140D01*
X203321860Y-101492726D01*
X203321851Y-101492718D01*
X203113803Y-101333075D01*
X202886700Y-101201958D01*
X202886690Y-101201953D01*
X202644428Y-101101605D01*
X202644421Y-101101603D01*
X202644419Y-101101602D01*
X202391116Y-101033730D01*
X202333339Y-101026123D01*
X202131127Y-100999500D01*
X202131120Y-100999500D01*
X201868880Y-100999500D01*
X201868872Y-100999500D01*
X201637772Y-101029926D01*
X201608884Y-101033730D01*
X201355581Y-101101602D01*
X201355571Y-101101605D01*
X201113309Y-101201953D01*
X201113299Y-101201958D01*
X200886196Y-101333075D01*
X200678148Y-101492718D01*
X200492718Y-101678148D01*
X200333075Y-101886196D01*
X200201958Y-102113299D01*
X200201953Y-102113309D01*
X200101605Y-102355571D01*
X200101602Y-102355581D01*
X200045268Y-102565826D01*
X200033730Y-102608885D01*
X199999500Y-102868872D01*
X193850499Y-102868872D01*
X193850499Y-102500000D01*
X193850499Y-101602129D01*
X193850498Y-101602123D01*
X193850497Y-101602116D01*
X193844091Y-101542517D01*
X193825520Y-101492726D01*
X193793797Y-101407671D01*
X193793793Y-101407664D01*
X193707547Y-101292455D01*
X193707544Y-101292452D01*
X193592335Y-101206206D01*
X193592328Y-101206202D01*
X193457482Y-101155908D01*
X193457483Y-101155908D01*
X193397883Y-101149501D01*
X193397881Y-101149500D01*
X193397873Y-101149500D01*
X193397864Y-101149500D01*
X191602129Y-101149500D01*
X191602123Y-101149501D01*
X191542516Y-101155908D01*
X191407671Y-101206202D01*
X191407664Y-101206206D01*
X191292455Y-101292452D01*
X191292452Y-101292455D01*
X191206206Y-101407664D01*
X191206202Y-101407671D01*
X191155908Y-101542517D01*
X191149501Y-101602116D01*
X191149501Y-101602123D01*
X191149500Y-101602135D01*
X191149500Y-101612690D01*
X191129815Y-101679729D01*
X191113181Y-101700371D01*
X190442962Y-102370590D01*
X190425925Y-102307007D01*
X190360099Y-102192993D01*
X190267007Y-102099901D01*
X190152993Y-102034075D01*
X190089409Y-102017037D01*
X190721716Y-101384728D01*
X190667550Y-101345375D01*
X190478217Y-101248904D01*
X190276129Y-101183242D01*
X190066246Y-101150000D01*
X189853754Y-101150000D01*
X189643872Y-101183242D01*
X189643869Y-101183242D01*
X189441782Y-101248904D01*
X189252439Y-101345380D01*
X189198282Y-101384727D01*
X189198282Y-101384728D01*
X189830591Y-102017037D01*
X189767007Y-102034075D01*
X189652993Y-102099901D01*
X189559901Y-102192993D01*
X189494075Y-102307007D01*
X189477037Y-102370591D01*
X188844728Y-101738282D01*
X188844727Y-101738282D01*
X188805380Y-101792439D01*
X188708904Y-101981782D01*
X188643242Y-102183869D01*
X188643242Y-102183872D01*
X188610000Y-102393753D01*
X188610000Y-102606246D01*
X188643242Y-102816127D01*
X188643242Y-102816130D01*
X188708904Y-103018217D01*
X188805375Y-103207550D01*
X188844728Y-103261716D01*
X189477037Y-102629408D01*
X189494075Y-102692993D01*
X189559901Y-102807007D01*
X189652993Y-102900099D01*
X189767007Y-102965925D01*
X189830590Y-102982962D01*
X189198282Y-103615269D01*
X189198322Y-103615770D01*
X189183958Y-103684147D01*
X189134907Y-103733905D01*
X189074704Y-103749500D01*
X185676080Y-103749500D01*
X185531092Y-103778340D01*
X185531082Y-103778343D01*
X185394511Y-103834912D01*
X185394504Y-103834916D01*
X185378992Y-103845281D01*
X185371183Y-103850499D01*
X185371182Y-103850499D01*
X185271585Y-103917046D01*
X185271578Y-103917052D01*
X184667050Y-104521580D01*
X184667044Y-104521588D01*
X184617812Y-104595268D01*
X184617813Y-104595269D01*
X184584921Y-104644496D01*
X184584914Y-104644508D01*
X184528342Y-104781086D01*
X184528340Y-104781091D01*
X184503806Y-104904428D01*
X184471420Y-104966338D01*
X184447286Y-104985773D01*
X184331347Y-105057285D01*
X184331343Y-105057288D01*
X184207289Y-105181342D01*
X184115187Y-105330663D01*
X184115186Y-105330666D01*
X184060001Y-105497203D01*
X184060001Y-105497204D01*
X184060000Y-105497204D01*
X184049500Y-105599983D01*
X184049500Y-106400001D01*
X184049501Y-106400019D01*
X184060000Y-106502796D01*
X184060001Y-106502799D01*
X184097065Y-106614650D01*
X184115186Y-106669334D01*
X184206273Y-106817011D01*
X184207289Y-106818657D01*
X184300951Y-106912319D01*
X184304268Y-106918394D01*
X184309949Y-106922352D01*
X184320798Y-106948667D01*
X184334436Y-106973642D01*
X184333942Y-106980545D01*
X184336581Y-106986946D01*
X184331482Y-107014944D01*
X184329452Y-107043334D01*
X184325003Y-107050522D01*
X184324063Y-107055686D01*
X184308324Y-107077473D01*
X184303887Y-107084644D01*
X184302455Y-107086176D01*
X184207288Y-107181344D01*
X184195093Y-107201114D01*
X184186659Y-107210144D01*
X184166791Y-107221887D01*
X184149632Y-107237322D01*
X184135092Y-107240626D01*
X184126512Y-107245698D01*
X184114712Y-107245257D01*
X184096042Y-107249500D01*
X183612230Y-107249500D01*
X183545191Y-107229815D01*
X183524549Y-107213181D01*
X183283413Y-106972045D01*
X183227847Y-106934919D01*
X183201102Y-106917049D01*
X183160495Y-106889916D01*
X183160494Y-106889915D01*
X183160492Y-106889914D01*
X183160490Y-106889913D01*
X183023917Y-106833343D01*
X183023907Y-106833340D01*
X182878920Y-106804500D01*
X182878918Y-106804500D01*
X181926874Y-106804500D01*
X181859835Y-106784815D01*
X181839193Y-106768181D01*
X181828044Y-106757032D01*
X181828040Y-106757029D01*
X181683705Y-106668001D01*
X181683699Y-106667998D01*
X181683697Y-106667997D01*
X181658507Y-106659650D01*
X181522709Y-106614651D01*
X181423346Y-106604500D01*
X180576662Y-106604500D01*
X180576644Y-106604501D01*
X180477292Y-106614650D01*
X180477289Y-106614651D01*
X180316305Y-106667996D01*
X180316294Y-106668001D01*
X180171959Y-106757029D01*
X180171955Y-106757032D01*
X180052032Y-106876955D01*
X180052029Y-106876959D01*
X179963001Y-107021294D01*
X179962996Y-107021305D01*
X179909651Y-107182290D01*
X179899500Y-107281647D01*
X177500500Y-107281647D01*
X177500500Y-100624500D01*
X177520185Y-100557461D01*
X177572989Y-100511706D01*
X177624500Y-100500500D01*
X204375500Y-100500500D01*
X204442539Y-100520185D01*
G37*
%TD.AperFunction*%
%TD*%
M02*
