<?xml version="1.0" standalone="no"?>
 <!DOCTYPE svg PUBLIC "-//W3C//DTD SVG 1.1//EN" 
 "http://www.w3.org/Graphics/SVG/1.1/DTD/svg11.dtd"> 
<svg
  xmlns:svg="http://www.w3.org/2000/svg"
  xmlns="http://www.w3.org/2000/svg"
  xmlns:xlink="http://www.w3.org/1999/xlink"
  version="1.1"
  width="297.0022mm" height="210.0072mm" viewBox="0.0000 0.0000 297.0022 210.0072">
<title>SVG Image created as 555_pwm-F_Paste.svg date 2026/03/03 17:03:43 </title>
  <desc>Image generated by PCBNEW </desc>
<g style="fill:#000000; fill-opacity:1.0000;stroke:#000000; stroke-opacity:1.0000;
stroke-linecap:round; stroke-linejoin:round;"
 transform="translate(0 0) scale(1 1)">
<path style="fill:#000000; fill-opacity:1.0000; stroke:none;fill-rule:evenodd;"
d="M 194.0750,107.5400
194.0864,107.4826
194.1189,107.4339
194.1676,107.4014
194.2250,107.3900
195.8750,107.3900
195.9324,107.4014
195.9811,107.4339
196.0136,107.4826
196.0250,107.5400
196.0250,107.8400
196.0136,107.8974
195.9811,107.9461
195.9324,107.9786
195.8750,107.9900
194.2250,107.9900
194.1676,107.9786
194.1189,107.9461
194.0864,107.8974
194.0750,107.8400
Z" /> 
<path style="fill:#000000; fill-opacity:1.0000; stroke:none;fill-rule:evenodd;"
d="M 194.0750,108.8100
194.0864,108.7526
194.1189,108.7039
194.1676,108.6714
194.2250,108.6600
195.8750,108.6600
195.9324,108.6714
195.9811,108.7039
196.0136,108.7526
196.0250,108.8100
196.0250,109.1100
196.0136,109.1674
195.9811,109.2161
195.9324,109.2486
195.8750,109.2600
194.2250,109.2600
194.1676,109.2486
194.1189,109.2161
194.0864,109.1674
194.0750,109.1100
Z" /> 
<path style="fill:#000000; fill-opacity:1.0000; stroke:none;fill-rule:evenodd;"
d="M 194.0750,110.0800
194.0864,110.0226
194.1189,109.9739
194.1676,109.9414
194.2250,109.9300
195.8750,109.9300
195.9324,109.9414
195.9811,109.9739
196.0136,110.0226
196.0250,110.0800
196.0250,110.3800
196.0136,110.4374
195.9811,110.4861
195.9324,110.5186
195.8750,110.5300
194.2250,110.5300
194.1676,110.5186
194.1189,110.4861
194.0864,110.4374
194.0750,110.3800
Z" /> 
<path style="fill:#000000; fill-opacity:1.0000; stroke:none;fill-rule:evenodd;"
d="M 194.0750,111.3500
194.0864,111.2926
194.1189,111.2439
194.1676,111.2114
194.2250,111.2000
195.8750,111.2000
195.9324,111.2114
195.9811,111.2439
196.0136,111.2926
196.0250,111.3500
196.0250,111.6500
196.0136,111.7074
195.9811,111.7561
195.9324,111.7886
195.8750,111.8000
194.2250,111.8000
194.1676,111.7886
194.1189,111.7561
194.0864,111.7074
194.0750,111.6500
Z" /> 
<path style="fill:#000000; fill-opacity:1.0000; stroke:none;fill-rule:evenodd;"
d="M 199.0250,111.3500
199.0364,111.2926
199.0689,111.2439
199.1176,111.2114
199.1750,111.2000
200.8250,111.2000
200.8824,111.2114
200.9311,111.2439
200.9636,111.2926
200.9750,111.3500
200.9750,111.6500
200.9636,111.7074
200.9311,111.7561
200.8824,111.7886
200.8250,111.8000
199.1750,111.8000
199.1176,111.7886
199.0689,111.7561
199.0364,111.7074
199.0250,111.6500
Z" /> 
<path style="fill:#000000; fill-opacity:1.0000; stroke:none;fill-rule:evenodd;"
d="M 199.0250,110.0800
199.0364,110.0226
199.0689,109.9739
199.1176,109.9414
199.1750,109.9300
200.8250,109.9300
200.8824,109.9414
200.9311,109.9739
200.9636,110.0226
200.9750,110.0800
200.9750,110.3800
200.9636,110.4374
200.9311,110.4861
200.8824,110.5186
200.8250,110.5300
199.1750,110.5300
199.1176,110.5186
199.0689,110.4861
199.0364,110.4374
199.0250,110.3800
Z" /> 
<path style="fill:#000000; fill-opacity:1.0000; stroke:none;fill-rule:evenodd;"
d="M 199.0250,108.8100
199.0364,108.7526
199.0689,108.7039
199.1176,108.6714
199.1750,108.6600
200.8250,108.6600
200.8824,108.6714
200.9311,108.7039
200.9636,108.7526
200.9750,108.8100
200.9750,109.1100
200.9636,109.1674
200.9311,109.2161
200.8824,109.2486
200.8250,109.2600
199.1750,109.2600
199.1176,109.2486
199.0689,109.2161
199.0364,109.1674
199.0250,109.1100
Z" /> 
<path style="fill:#000000; fill-opacity:1.0000; stroke:none;fill-rule:evenodd;"
d="M 199.0250,107.5400
199.0364,107.4826
199.0689,107.4339
199.1176,107.4014
199.1750,107.3900
200.8250,107.3900
200.8824,107.4014
200.9311,107.4339
200.9636,107.4826
200.9750,107.5400
200.9750,107.8400
200.9636,107.8974
200.9311,107.9461
200.8824,107.9786
200.8250,107.9900
199.1750,107.9900
199.1176,107.9786
199.0689,107.9461
199.0364,107.8974
199.0250,107.8400
Z" /> 
<path style="fill:#000000; fill-opacity:1.0000; stroke:none;fill-rule:evenodd;"
d="M 190.3750,107.1500
190.4611,107.1671
190.5341,107.2159
190.5829,107.2889
190.6000,107.3750
190.6000,107.8250
190.5829,107.9111
190.5341,107.9841
190.4611,108.0329
190.3750,108.0500
189.6250,108.0500
189.5389,108.0329
189.4659,107.9841
189.4171,107.9111
189.4000,107.8250
189.4000,107.3750
189.4171,107.2889
189.4659,107.2159
189.5389,107.1671
189.6250,107.1500
Z" /> 
<path style="fill:#000000; fill-opacity:1.0000; stroke:none;fill-rule:evenodd;"
d="M 190.3750,110.4500
190.4611,110.4671
190.5341,110.5159
190.5829,110.5889
190.6000,110.6750
190.6000,111.1250
190.5829,111.2111
190.5341,111.2841
190.4611,111.3329
190.3750,111.3500
189.6250,111.3500
189.5389,111.3329
189.4659,111.2841
189.4171,111.2111
189.4000,111.1250
189.4000,110.6750
189.4171,110.5889
189.4659,110.5159
189.5389,110.4671
189.6250,110.4500
Z" /> 
<path style="fill:#000000; fill-opacity:1.0000; stroke:none;fill-rule:evenodd;"
d="M 198.7625,113.7375
198.7444,113.8284
198.6929,113.9054
198.6159,113.9569
198.5250,113.9750
197.9250,113.9750
197.8341,113.9569
197.7571,113.9054
197.7056,113.8284
197.6875,113.7375
197.6875,113.2625
197.7056,113.1716
197.7571,113.0946
197.8341,113.0431
197.9250,113.0250
198.5250,113.0250
198.6159,113.0431
198.6929,113.0946
198.7444,113.1716
198.7625,113.2625
Z" /> 
<path style="fill:#000000; fill-opacity:1.0000; stroke:none;fill-rule:evenodd;"
d="M 197.0375,113.7375
197.0194,113.8284
196.9679,113.9054
196.8909,113.9569
196.8000,113.9750
196.2000,113.9750
196.1091,113.9569
196.0321,113.9054
195.9806,113.8284
195.9625,113.7375
195.9625,113.2625
195.9806,113.1716
196.0321,113.0946
196.1091,113.0431
196.2000,113.0250
196.8000,113.0250
196.8909,113.0431
196.9679,113.0946
197.0194,113.1716
197.0375,113.2625
Z" /> 
<path style="fill:#000000; fill-opacity:1.0000; stroke:none;fill-rule:evenodd;"
d="M 189.1250,116.0500
189.1440,115.9543
189.1982,115.8732
189.2793,115.8190
189.3750,115.8000
190.0250,115.8000
190.1207,115.8190
190.2018,115.8732
190.2560,115.9543
190.2750,116.0500
190.2750,116.9500
190.2560,117.0457
190.2018,117.1268
190.1207,117.1810
190.0250,117.2000
189.3750,117.2000
189.2793,117.1810
189.1982,117.1268
189.1440,117.0457
189.1250,116.9500
Z" /> 
<path style="fill:#000000; fill-opacity:1.0000; stroke:none;fill-rule:evenodd;"
d="M 191.1750,116.0500
191.1940,115.9543
191.2482,115.8732
191.3293,115.8190
191.4250,115.8000
192.0750,115.8000
192.1707,115.8190
192.2518,115.8732
192.3060,115.9543
192.3250,116.0500
192.3250,116.9500
192.3060,117.0457
192.2518,117.1268
192.1707,117.1810
192.0750,117.2000
191.4250,117.2000
191.3293,117.1810
191.2482,117.1268
191.1940,117.0457
191.1750,116.9500
Z" /> 
<path style="fill:#000000; fill-opacity:1.0000; stroke:none;fill-rule:evenodd;"
d="M 185.9000,110.4000
187.1000,110.4000
187.1000,111.6000
185.9000,111.6000
Z" /> 
<path style="fill:#000000; fill-opacity:1.0000; stroke:none;fill-rule:evenodd;"
d="M 184.7000,113.5000
186.3000,113.5000
186.3000,115.0000
184.7000,115.0000
Z" /> 
<path style="fill:#000000; fill-opacity:1.0000; stroke:none;fill-rule:evenodd;"
d="M 183.9000,110.4000
185.1000,110.4000
185.1000,111.6000
183.9000,111.6000
Z" /> 
<path style="fill:#000000; fill-opacity:1.0000; stroke:none;fill-rule:evenodd;"
d="M 185.7000,105.4000
185.7957,105.4190
185.8768,105.4732
185.9310,105.5543
185.9500,105.6500
185.9500,106.3500
185.9310,106.4457
185.8768,106.5268
185.7957,106.5810
185.7000,106.6000
184.8000,106.6000
184.7043,106.5810
184.6232,106.5268
184.5690,106.4457
184.5500,106.3500
184.5500,105.6500
184.5690,105.5543
184.6232,105.4732
184.7043,105.4190
184.8000,105.4000
Z" /> 
<path style="fill:#000000; fill-opacity:1.0000; stroke:none;fill-rule:evenodd;"
d="M 185.7000,107.4000
185.7957,107.4190
185.8768,107.4732
185.9310,107.5543
185.9500,107.6500
185.9500,108.3500
185.9310,108.4457
185.8768,108.5268
185.7957,108.5810
185.7000,108.6000
184.8000,108.6000
184.7043,108.5810
184.6232,108.5268
184.5690,108.4457
184.5500,108.3500
184.5500,107.6500
184.5690,107.5543
184.6232,107.4732
184.7043,107.4190
184.8000,107.4000
Z" /> 
<path style="fill:#000000; fill-opacity:1.0000; stroke:none;fill-rule:evenodd;"
d="M 180.6250,111.3050
180.5389,111.2879
180.4659,111.2391
180.4171,111.1661
180.4000,111.0800
180.4000,110.6300
180.4171,110.5439
180.4659,110.4709
180.5389,110.4221
180.6250,110.4050
181.3750,110.4050
181.4611,110.4221
181.5341,110.4709
181.5829,110.5439
181.6000,110.6300
181.6000,111.0800
181.5829,111.1661
181.5341,111.2391
181.4611,111.2879
181.3750,111.3050
Z" /> 
<path style="fill:#000000; fill-opacity:1.0000; stroke:none;fill-rule:evenodd;"
d="M 180.6250,108.0050
180.5389,107.9879
180.4659,107.9391
180.4171,107.8661
180.4000,107.7800
180.4000,107.3300
180.4171,107.2439
180.4659,107.1709
180.5389,107.1221
180.6250,107.1050
181.3750,107.1050
181.4611,107.1221
181.5341,107.1709
181.5829,107.2439
181.6000,107.3300
181.6000,107.7800
181.5829,107.8661
181.5341,107.9391
181.4611,107.9879
181.3750,108.0050
Z" /> 
<path style="fill:#000000; fill-opacity:1.0000; stroke:none;fill-rule:evenodd;"
d="M 185.7375,116.4625
185.8284,116.4806
185.9054,116.5321
185.9569,116.6091
185.9750,116.7000
185.9750,117.3000
185.9569,117.3909
185.9054,117.4679
185.8284,117.5194
185.7375,117.5375
185.2625,117.5375
185.1716,117.5194
185.0946,117.4679
185.0431,117.3909
185.0250,117.3000
185.0250,116.7000
185.0431,116.6091
185.0946,116.5321
185.1716,116.4806
185.2625,116.4625
Z" /> 
<path style="fill:#000000; fill-opacity:1.0000; stroke:none;fill-rule:evenodd;"
d="M 185.7375,118.1875
185.8284,118.2056
185.9054,118.2571
185.9569,118.3341
185.9750,118.4250
185.9750,119.0250
185.9569,119.1159
185.9054,119.1929
185.8284,119.2444
185.7375,119.2625
185.2625,119.2625
185.1716,119.2444
185.0946,119.1929
185.0431,119.1159
185.0250,119.0250
185.0250,118.4250
185.0431,118.3341
185.0946,118.2571
185.1716,118.2056
185.2625,118.1875
Z" /> 
<path style="fill:#000000; fill-opacity:1.0000; stroke:none;fill-rule:evenodd;"
d="M 197.6000,116.9500
197.5810,117.0457
197.5268,117.1268
197.4457,117.1810
197.3500,117.2000
196.6500,117.2000
196.5543,117.1810
196.4732,117.1268
196.4190,117.0457
196.4000,116.9500
196.4000,116.0500
196.4190,115.9543
196.4732,115.8732
196.5543,115.8190
196.6500,115.8000
197.3500,115.8000
197.4457,115.8190
197.5268,115.8732
197.5810,115.9543
197.6000,116.0500
Z" /> 
<path style="fill:#000000; fill-opacity:1.0000; stroke:none;fill-rule:evenodd;"
d="M 195.6000,116.9500
195.5810,117.0457
195.5268,117.1268
195.4457,117.1810
195.3500,117.2000
194.6500,117.2000
194.5543,117.1810
194.4732,117.1268
194.4190,117.0457
194.4000,116.9500
194.4000,116.0500
194.4190,115.9543
194.4732,115.8732
194.5543,115.8190
194.6500,115.8000
195.3500,115.8000
195.4457,115.8190
195.5268,115.8732
195.5810,115.9543
195.6000,116.0500
Z" /> 
</g> 
</svg>
