<?xml version="1.0" standalone="no"?>
 <!DOCTYPE svg PUBLIC "-//W3C//DTD SVG 1.1//EN" 
 "http://www.w3.org/Graphics/SVG/1.1/DTD/svg11.dtd"> 
<svg
  xmlns:svg="http://www.w3.org/2000/svg"
  xmlns="http://www.w3.org/2000/svg"
  xmlns:xlink="http://www.w3.org/1999/xlink"
  version="1.1"
  width="297.0022mm" height="210.0072mm" viewBox="0.0000 0.0000 297.0022 210.0072">
<title>SVG Image created as 555_pwm-F_Cu.svg date 2026/03/22 19:27:11 </title>
  <desc>Image generated by PCBNEW </desc>
<g style="fill:#000000; fill-opacity:1.0000;stroke:#000000; stroke-opacity:1.0000;
stroke-linecap:round; stroke-linejoin:round;"
 transform="translate(0 0) scale(1 1)">
<path style="fill:#000000; fill-opacity:1.0000; stroke:none;fill-rule:evenodd;"
d="M 191.6500,101.6500
193.3500,101.6500
193.3500,103.3500
191.6500,103.3500
Z" /> 
</g>
<g style="fill:#000000; fill-opacity:1.0000; stroke:none;">
<circle cx="189.9600" cy="102.5000" r="0.8500" /> 
<path style="fill:#000000; fill-opacity:1.0000; stroke:none;fill-rule:evenodd;"
d="M 194.0750,107.5400
194.0864,107.4826
194.1189,107.4339
194.1676,107.4014
194.2250,107.3900
195.8750,107.3900
195.9324,107.4014
195.9811,107.4339
196.0136,107.4826
196.0250,107.5400
196.0250,107.8400
196.0136,107.8974
195.9811,107.9461
195.9324,107.9786
195.8750,107.9900
194.2250,107.9900
194.1676,107.9786
194.1189,107.9461
194.0864,107.8974
194.0750,107.8400
Z" /> 
<path style="fill:#000000; fill-opacity:1.0000; stroke:none;fill-rule:evenodd;"
d="M 194.0750,108.8100
194.0864,108.7526
194.1189,108.7039
194.1676,108.6714
194.2250,108.6600
195.8750,108.6600
195.9324,108.6714
195.9811,108.7039
196.0136,108.7526
196.0250,108.8100
196.0250,109.1100
196.0136,109.1674
195.9811,109.2161
195.9324,109.2486
195.8750,109.2600
194.2250,109.2600
194.1676,109.2486
194.1189,109.2161
194.0864,109.1674
194.0750,109.1100
Z" /> 
<path style="fill:#000000; fill-opacity:1.0000; stroke:none;fill-rule:evenodd;"
d="M 194.0750,110.0800
194.0864,110.0226
194.1189,109.9739
194.1676,109.9414
194.2250,109.9300
195.8750,109.9300
195.9324,109.9414
195.9811,109.9739
196.0136,110.0226
196.0250,110.0800
196.0250,110.3800
196.0136,110.4374
195.9811,110.4861
195.9324,110.5186
195.8750,110.5300
194.2250,110.5300
194.1676,110.5186
194.1189,110.4861
194.0864,110.4374
194.0750,110.3800
Z" /> 
<path style="fill:#000000; fill-opacity:1.0000; stroke:none;fill-rule:evenodd;"
d="M 194.0750,111.3500
194.0864,111.2926
194.1189,111.2439
194.1676,111.2114
194.2250,111.2000
195.8750,111.2000
195.9324,111.2114
195.9811,111.2439
196.0136,111.2926
196.0250,111.3500
196.0250,111.6500
196.0136,111.7074
195.9811,111.7561
195.9324,111.7886
195.8750,111.8000
194.2250,111.8000
194.1676,111.7886
194.1189,111.7561
194.0864,111.7074
194.0750,111.6500
Z" /> 
<path style="fill:#000000; fill-opacity:1.0000; stroke:none;fill-rule:evenodd;"
d="M 199.0250,111.3500
199.0364,111.2926
199.0689,111.2439
199.1176,111.2114
199.1750,111.2000
200.8250,111.2000
200.8824,111.2114
200.9311,111.2439
200.9636,111.2926
200.9750,111.3500
200.9750,111.6500
200.9636,111.7074
200.9311,111.7561
200.8824,111.7886
200.8250,111.8000
199.1750,111.8000
199.1176,111.7886
199.0689,111.7561
199.0364,111.7074
199.0250,111.6500
Z" /> 
<path style="fill:#000000; fill-opacity:1.0000; stroke:none;fill-rule:evenodd;"
d="M 199.0250,110.0800
199.0364,110.0226
199.0689,109.9739
199.1176,109.9414
199.1750,109.9300
200.8250,109.9300
200.8824,109.9414
200.9311,109.9739
200.9636,110.0226
200.9750,110.0800
200.9750,110.3800
200.9636,110.4374
200.9311,110.4861
200.8824,110.5186
200.8250,110.5300
199.1750,110.5300
199.1176,110.5186
199.0689,110.4861
199.0364,110.4374
199.0250,110.3800
Z" /> 
<path style="fill:#000000; fill-opacity:1.0000; stroke:none;fill-rule:evenodd;"
d="M 199.0250,108.8100
199.0364,108.7526
199.0689,108.7039
199.1176,108.6714
199.1750,108.6600
200.8250,108.6600
200.8824,108.6714
200.9311,108.7039
200.9636,108.7526
200.9750,108.8100
200.9750,109.1100
200.9636,109.1674
200.9311,109.2161
200.8824,109.2486
200.8250,109.2600
199.1750,109.2600
199.1176,109.2486
199.0689,109.2161
199.0364,109.1674
199.0250,109.1100
Z" /> 
<path style="fill:#000000; fill-opacity:1.0000; stroke:none;fill-rule:evenodd;"
d="M 199.0250,107.5400
199.0364,107.4826
199.0689,107.4339
199.1176,107.4014
199.1750,107.3900
200.8250,107.3900
200.8824,107.4014
200.9311,107.4339
200.9636,107.4826
200.9750,107.5400
200.9750,107.8400
200.9636,107.8974
200.9311,107.9461
200.8824,107.9786
200.8250,107.9900
199.1750,107.9900
199.1176,107.9786
199.0689,107.9461
199.0364,107.8974
199.0250,107.8400
Z" /> 
<path style="fill:#000000; fill-opacity:1.0000; stroke:none;fill-rule:evenodd;"
d="M 202.3500,119.6500
202.3500,121.3500
200.6500,121.3500
200.6500,119.6500
Z" /> 
<path style="fill:#000000; fill-opacity:1.0000; stroke:none;fill-rule:evenodd;"
d="M 190.3750,107.1500
190.4611,107.1671
190.5341,107.2159
190.5829,107.2889
190.6000,107.3750
190.6000,107.8250
190.5829,107.9111
190.5341,107.9841
190.4611,108.0329
190.3750,108.0500
189.6250,108.0500
189.5389,108.0329
189.4659,107.9841
189.4171,107.9111
189.4000,107.8250
189.4000,107.3750
189.4171,107.2889
189.4659,107.2159
189.5389,107.1671
189.6250,107.1500
Z" /> 
<path style="fill:#000000; fill-opacity:1.0000; stroke:none;fill-rule:evenodd;"
d="M 190.3750,110.4500
190.4611,110.4671
190.5341,110.5159
190.5829,110.5889
190.6000,110.6750
190.6000,111.1250
190.5829,111.2111
190.5341,111.2841
190.4611,111.3329
190.3750,111.3500
189.6250,111.3500
189.5389,111.3329
189.4659,111.2841
189.4171,111.2111
189.4000,111.1250
189.4000,110.6750
189.4171,110.5889
189.4659,110.5159
189.5389,110.4671
189.6250,110.4500
Z" /> 
<path style="fill:#000000; fill-opacity:1.0000; stroke:none;fill-rule:evenodd;"
d="M 198.7625,113.7375
198.7444,113.8284
198.6929,113.9054
198.6159,113.9569
198.5250,113.9750
197.9250,113.9750
197.8341,113.9569
197.7571,113.9054
197.7056,113.8284
197.6875,113.7375
197.6875,113.2625
197.7056,113.1716
197.7571,113.0946
197.8341,113.0431
197.9250,113.0250
198.5250,113.0250
198.6159,113.0431
198.6929,113.0946
198.7444,113.1716
198.7625,113.2625
Z" /> 
<path style="fill:#000000; fill-opacity:1.0000; stroke:none;fill-rule:evenodd;"
d="M 197.0375,113.7375
197.0194,113.8284
196.9679,113.9054
196.8909,113.9569
196.8000,113.9750
196.2000,113.9750
196.1091,113.9569
196.0321,113.9054
195.9806,113.8284
195.9625,113.7375
195.9625,113.2625
195.9806,113.1716
196.0321,113.0946
196.1091,113.0431
196.2000,113.0250
196.8000,113.0250
196.8909,113.0431
196.9679,113.0946
197.0194,113.1716
197.0375,113.2625
Z" /> 
<path style="fill:#000000; fill-opacity:1.0000; stroke:none;fill-rule:evenodd;"
d="M 180.1500,121.3500
180.1500,119.6500
181.8500,119.6500
181.8500,121.3500
Z" /> 
<path style="fill:#000000; fill-opacity:1.0000; stroke:none;fill-rule:evenodd;"
d="M 189.1250,116.0500
189.1440,115.9543
189.1982,115.8732
189.2793,115.8190
189.3750,115.8000
190.0250,115.8000
190.1207,115.8190
190.2018,115.8732
190.2560,115.9543
190.2750,116.0500
190.2750,116.9500
190.2560,117.0457
190.2018,117.1268
190.1207,117.1810
190.0250,117.2000
189.3750,117.2000
189.2793,117.1810
189.1982,117.1268
189.1440,117.0457
189.1250,116.9500
Z" /> 
<path style="fill:#000000; fill-opacity:1.0000; stroke:none;fill-rule:evenodd;"
d="M 191.1750,116.0500
191.1940,115.9543
191.2482,115.8732
191.3293,115.8190
191.4250,115.8000
192.0750,115.8000
192.1707,115.8190
192.2518,115.8732
192.3060,115.9543
192.3250,116.0500
192.3250,116.9500
192.3060,117.0457
192.2518,117.1268
192.1707,117.1810
192.0750,117.2000
191.4250,117.2000
191.3293,117.1810
191.2482,117.1268
191.1940,117.0457
191.1750,116.9500
Z" /> 
<path style="fill:#000000; fill-opacity:1.0000; stroke:none;fill-rule:evenodd;"
d="M 185.9000,110.4000
187.1000,110.4000
187.1000,111.6000
185.9000,111.6000
Z" /> 
<path style="fill:#000000; fill-opacity:1.0000; stroke:none;fill-rule:evenodd;"
d="M 184.7000,113.5000
186.3000,113.5000
186.3000,115.0000
184.7000,115.0000
Z" /> 
<path style="fill:#000000; fill-opacity:1.0000; stroke:none;fill-rule:evenodd;"
d="M 183.9000,110.4000
185.1000,110.4000
185.1000,111.6000
183.9000,111.6000
Z" /> 
<path style="fill:#000000; fill-opacity:1.0000; stroke:none;fill-rule:evenodd;"
d="M 185.7000,105.4000
185.7957,105.4190
185.8768,105.4732
185.9310,105.5543
185.9500,105.6500
185.9500,106.3500
185.9310,106.4457
185.8768,106.5268
185.7957,106.5810
185.7000,106.6000
184.8000,106.6000
184.7043,106.5810
184.6232,106.5268
184.5690,106.4457
184.5500,106.3500
184.5500,105.6500
184.5690,105.5543
184.6232,105.4732
184.7043,105.4190
184.8000,105.4000
Z" /> 
<path style="fill:#000000; fill-opacity:1.0000; stroke:none;fill-rule:evenodd;"
d="M 185.7000,107.4000
185.7957,107.4190
185.8768,107.4732
185.9310,107.5543
185.9500,107.6500
185.9500,108.3500
185.9310,108.4457
185.8768,108.5268
185.7957,108.5810
185.7000,108.6000
184.8000,108.6000
184.7043,108.5810
184.6232,108.5268
184.5690,108.4457
184.5500,108.3500
184.5500,107.6500
184.5690,107.5543
184.6232,107.4732
184.7043,107.4190
184.8000,107.4000
Z" /> 
<path style="fill:#000000; fill-opacity:1.0000; stroke:none;fill-rule:evenodd;"
d="M 180.6250,111.3050
180.5389,111.2879
180.4659,111.2391
180.4171,111.1661
180.4000,111.0800
180.4000,110.6300
180.4171,110.5439
180.4659,110.4709
180.5389,110.4221
180.6250,110.4050
181.3750,110.4050
181.4611,110.4221
181.5341,110.4709
181.5829,110.5439
181.6000,110.6300
181.6000,111.0800
181.5829,111.1661
181.5341,111.2391
181.4611,111.2879
181.3750,111.3050
Z" /> 
<path style="fill:#000000; fill-opacity:1.0000; stroke:none;fill-rule:evenodd;"
d="M 180.6250,108.0050
180.5389,107.9879
180.4659,107.9391
180.4171,107.8661
180.4000,107.7800
180.4000,107.3300
180.4171,107.2439
180.4659,107.1709
180.5389,107.1221
180.6250,107.1050
181.3750,107.1050
181.4611,107.1221
181.5341,107.1709
181.5829,107.2439
181.6000,107.3300
181.6000,107.7800
181.5829,107.8661
181.5341,107.9391
181.4611,107.9879
181.3750,108.0050
Z" /> 
<path style="fill:#000000; fill-opacity:1.0000; stroke:none;fill-rule:evenodd;"
d="M 185.7375,116.4625
185.8284,116.4806
185.9054,116.5321
185.9569,116.6091
185.9750,116.7000
185.9750,117.3000
185.9569,117.3909
185.9054,117.4679
185.8284,117.5194
185.7375,117.5375
185.2625,117.5375
185.1716,117.5194
185.0946,117.4679
185.0431,117.3909
185.0250,117.3000
185.0250,116.7000
185.0431,116.6091
185.0946,116.5321
185.1716,116.4806
185.2625,116.4625
Z" /> 
<path style="fill:#000000; fill-opacity:1.0000; stroke:none;fill-rule:evenodd;"
d="M 185.7375,118.1875
185.8284,118.2056
185.9054,118.2571
185.9569,118.3341
185.9750,118.4250
185.9750,119.0250
185.9569,119.1159
185.9054,119.1929
185.8284,119.2444
185.7375,119.2625
185.2625,119.2625
185.1716,119.2444
185.0946,119.1929
185.0431,119.1159
185.0250,119.0250
185.0250,118.4250
185.0431,118.3341
185.0946,118.2571
185.1716,118.2056
185.2625,118.1875
Z" /> 
<path style="fill:#000000; fill-opacity:1.0000; stroke:none;fill-rule:evenodd;"
d="M 197.6000,116.9500
197.5810,117.0457
197.5268,117.1268
197.4457,117.1810
197.3500,117.2000
196.6500,117.2000
196.5543,117.1810
196.4732,117.1268
196.4190,117.0457
196.4000,116.9500
196.4000,116.0500
196.4190,115.9543
196.4732,115.8732
196.5543,115.8190
196.6500,115.8000
197.3500,115.8000
197.4457,115.8190
197.5268,115.8732
197.5810,115.9543
197.6000,116.0500
Z" /> 
<path style="fill:#000000; fill-opacity:1.0000; stroke:none;fill-rule:evenodd;"
d="M 195.6000,116.9500
195.5810,117.0457
195.5268,117.1268
195.4457,117.1810
195.3500,117.2000
194.6500,117.2000
194.5543,117.1810
194.4732,117.1268
194.4190,117.0457
194.4000,116.9500
194.4000,116.0500
194.4190,115.9543
194.4732,115.8732
194.5543,115.8190
194.6500,115.8000
195.3500,115.8000
195.4457,115.8190
195.5268,115.8732
195.5810,115.9543
195.6000,116.0500
Z" /> 
</g>
<g style="fill:#000000; fill-opacity:1.0000; stroke:none;">
<circle cx="194.4422" cy="113.2889" r="0.3000" /> 
</g>
<g style="fill:#000000; fill-opacity:1.0000; stroke:none;">
<circle cx="192.5000" cy="106.0000" r="0.3000" /> 
</g>
<g style="fill:#000000; fill-opacity:1.0000; stroke:none;">
<circle cx="202.5000" cy="110.5000" r="0.3000" /> 
</g>
<g style="fill:#000000; fill-opacity:1.0000; stroke:none;">
<circle cx="188.0000" cy="115.5000" r="0.3000" /> 
</g>
<g style="fill:#000000; fill-opacity:1.0000; stroke:none;">
<circle cx="192.0000" cy="110.0000" r="0.3000" /> 
</g>
<g style="fill:#000000; fill-opacity:1.0000; stroke:none;">
<circle cx="192.0000" cy="107.5000" r="0.3000" /> 
</g>
<g style="fill:#000000; fill-opacity:1.0000; stroke:none;">
<circle cx="202.5000" cy="109.0000" r="0.3000" /> 
</g>
<g style="fill:none; 
stroke:#000000; stroke-width:0.5000; stroke-opacity:1; 
stroke-linecap:round; stroke-linejoin:round;">
<path d="M186.0250 118.7250
L185.5000 118.7250
" />
<path d="M193.0000 109.0000
L192.0000 110.0000
" />
<path d="M193.0000 109.0000
L195.0100 109.0000
" />
<path d="M195.0100 109.0000
L195.0500 108.9600
" />
<path d="M202.0000 110.5000
L201.7300 110.2300
" />
<path d="M185.5000 115.5000
L185.5000 117.0000
" />
<path d="M202.5000 110.5000
L202.0000 110.5000
" />
<path d="M185.5000 114.2500
L185.5000 115.5000
" />
<path d="M185.5000 115.5000
L188.0000 115.5000
" />
<path d="M201.7300 110.2300
L200.0000 110.2300
" />
<path d="M200.0000 113.0000
L199.5000 113.5000
" />
<path d="M200.0000 111.5000
L200.0000 113.0000
" />
<path d="M199.5000 113.5000
L198.2250 113.5000
" />
<path d="M191.7500 116.5000
L195.0000 116.5000
" />
<path d="M185.7500 104.5000
L185.2500 105.0000
" />
<path d="M192.5000 104.5000
L185.7500 104.5000
" />
<path d="M196.5000 111.5000
L197.5000 110.5000
" />
<path d="M197.5000 110.5000
L197.5000 109.0000
" />
<path d="M192.5000 104.5000
L198.2500 104.5000
" />
<path d="M195.0500 111.5000
L196.5000 111.5000
" />
<path d="M198.2500 104.5000
L200.0000 106.2500
" />
<path d="M200.0000 106.2500
L200.0000 107.6900
" />
<path d="M192.5000 102.5000
L192.5000 104.5000
" />
<path d="M198.8100 107.6900
L200.0000 107.6900
" />
<path d="M185.2500 105.0000
L185.2500 106.0000
" />
<path d="M197.5000 109.0000
L198.8100 107.6900
" />
<path d="M197.0000 115.7500
L197.0000 116.5000
" />
<path d="M197.2500 116.2500
L197.0000 116.0000
" />
<path d="M193.7700 110.2300
L192.5000 111.5000
" />
<path d="M197.2500 116.5000
L197.2500 116.2500
" />
<path d="M199.0000 116.5000
L201.5000 119.0000
" />
<path d="M192.5000 113.7500
L193.7500 115.0000
" />
<path d="M195.0500 110.2300
L193.7700 110.2300
" />
<path d="M192.5000 111.5000
L192.5000 113.7500
" />
<path d="M201.5000 119.0000
L201.5000 120.5000
" />
<path d="M196.2500 115.0000
L197.0000 115.7500
" />
<path d="M197.0000 116.5000
L199.0000 116.5000
" />
<path d="M193.7500 115.0000
L196.2500 115.0000
" />
<path d="M183.2500 108.0000
L182.8050 107.5550
" />
<path d="M187.9000 107.6000
L190.0000 107.6000
" />
<path d="M191.9000 107.6000
L190.0000 107.6000
" />
<path d="M192.0000 107.5000
L191.9000 107.6000
" />
<path d="M185.2500 108.0000
L183.2500 108.0000
" />
<path d="M182.8050 107.5550
L181.0000 107.5550
" />
<path d="M185.2500 108.0000
L187.5000 108.0000
" />
<path d="M200.0000 108.9600
L202.4600 108.9600
" />
<path d="M187.5000 108.0000
L187.9000 107.6000
" />
<path d="M202.4600 108.9600
L202.5000 109.0000
" />
<path d="M190.0000 110.9000
L186.6000 110.9000
" />
<path d="M189.9000 111.0000
L190.0000 110.9000
" />
<path d="M186.6000 110.9000
L186.5000 111.0000
" />
<path d="M184.5000 111.0000
L183.5000 111.0000
" />
<path d="M183.3550 110.8550
L181.0000 110.8550
" />
<path d="M183.5000 111.0000
L183.3550 110.8550
" />
<path d="M184.4550 110.9550
L184.5000 111.0000
" />
<path style="fill:#000000; fill-opacity:1.0000; stroke:none;fill-rule:evenodd;"
d="M 198.4699,109.1939
198.5259,109.2358
198.5457,109.2755
198.5733,109.3704
198.5733,109.3704
198.6569,109.5119
198.6617,109.5180
198.6593,109.5199
198.6859,109.5686
198.6809,109.6383
198.6601,109.6707
198.6617,109.6720
198.6569,109.6781
198.5733,109.8196
198.5733,109.8196
198.5274,109.9774
198.5274,109.9774
198.5245,110.0143
198.5245,110.4457
198.5274,110.4826
198.5274,110.4826
198.5733,110.6404
198.5733,110.6404
198.6569,110.7819
198.6617,110.7880
198.6593,110.7899
198.6859,110.8386
198.6809,110.9083
198.6601,110.9407
198.6617,110.9420
198.6569,110.9481
198.5733,111.0896
198.5733,111.0896
198.5274,111.2474
198.5274,111.2474
198.5245,111.2843
198.5245,111.7157
198.5274,111.7526
198.5274,111.7526
198.5733,111.9104
198.5733,111.9104
198.6569,112.0519
198.6569,112.0519
198.7731,112.1681
198.7731,112.1681
198.7731,112.1681
198.9146,112.2517
198.9273,112.2554
199.0724,112.2976
199.0724,112.2976
199.0724,112.2976
199.1093,112.3005
199.1255,112.3005
199.1342,112.3030
199.1431,112.3018
199.1672,112.3127
199.1925,112.3202
199.1985,112.3270
199.2067,112.3308
199.2210,112.3530
199.2383,112.3730
199.2406,112.3835
199.2445,112.3896
199.2495,112.4245
199.2495,112.6255
199.2298,112.6925
199.1770,112.7383
199.1255,112.7495
199.1071,112.7495
199.0400,112.7298
199.0194,112.7132
198.9859,112.6797
198.9858,112.6797
198.8946,112.6234
198.8390,112.5891
198.8390,112.5891
198.8376,112.5886
198.6753,112.5348
198.6753,112.5348
198.5742,112.5245
197.8758,112.5245
197.8758,112.5245
197.7747,112.5348
197.6110,112.5891
197.6110,112.5891
197.4641,112.6797
197.4498,112.6940
197.3885,112.7275
197.3188,112.7225
197.2745,112.6940
197.2605,112.6801
197.2605,112.6801
197.1138,112.5896
197.1138,112.5895
196.9502,112.5353
196.8492,112.5250
196.7500,112.5250
196.7500,113.3760
196.7303,113.4430
196.6775,113.4888
196.6260,113.5000
196.5000,113.5000
196.5000,113.6260
196.4803,113.6930
196.4275,113.7388
196.3760,113.7500
195.4625,113.7500
195.4625,113.7867
195.4728,113.8877
195.5270,114.0513
195.5270,114.0513
195.5327,114.0604
195.5511,114.1278
195.5302,114.1945
195.4765,114.2392
195.4271,114.2495
194.1122,114.2495
194.0452,114.2298
194.0245,114.2132
193.2868,113.4755
193.2721,113.4485
193.2555,113.4227
193.2546,113.4165
193.2533,113.4141
193.2505,113.3878
193.2505,113.2133
195.4625,113.2133
195.4625,113.2500
196.2500,113.2500
196.2500,112.5250
196.1509,112.5250
196.1508,112.5250
196.0498,112.5353
195.8862,112.5895
195.8862,112.5896
195.7395,112.6801
195.7395,112.6801
195.6176,112.8020
195.6176,112.8020
195.5271,112.9487
195.5270,112.9487
195.4728,113.1123
195.4625,113.2133
193.2505,113.2133
193.2505,111.8622
193.2591,111.8328
193.2657,111.8028
193.2694,111.7978
193.2702,111.7952
193.2868,111.7746
193.3687,111.6926
193.4301,111.6591
193.4997,111.6641
193.5557,111.7060
193.5736,111.7471
193.5756,111.7465
193.6233,111.9104
193.6233,111.9104
193.7069,112.0519
193.7069,112.0519
193.8231,112.1681
193.8231,112.1681
193.8231,112.1681
193.9646,112.2517
193.9773,112.2554
194.1224,112.2976
194.1224,112.2976
194.1224,112.2976
194.1593,112.3005
194.1593,112.3005
195.9407,112.3005
195.9407,112.3005
195.9776,112.2976
195.9776,112.2976
195.9776,112.2976
196.1227,112.2554
196.1573,112.2505
196.5739,112.2505
196.6715,112.2311
196.7189,112.2217
196.8555,112.1651
196.9047,112.1322
196.9784,112.0830
198.0830,110.9784
198.1366,110.8981
198.1651,110.8555
198.1885,110.7989
198.2217,110.7189
198.2490,110.5817
198.2505,110.5739
198.2505,109.3622
198.2591,109.3328
198.2657,109.3028
198.2694,109.2978
198.2702,109.2952
198.2868,109.2745
198.3074,109.2539
198.3389,109.2224
198.4003,109.1889
Z" /> 
<path style="fill:#000000; fill-opacity:1.0000; stroke:none;fill-rule:evenodd;"
d="M 191.1132,103.2996
191.1457,103.3567
191.1495,103.3718
191.1495,103.3979
191.1559,103.4575
191.2047,103.5884
191.2064,103.5949
191.2054,103.6234
191.2074,103.6519
191.2041,103.6579
191.2039,103.6647
191.1876,103.6881
191.1739,103.7132
191.1679,103.7165
191.1640,103.7221
191.1376,103.7330
191.1126,103.7467
191.1018,103.7478
191.0995,103.7488
191.0970,103.7483
191.0862,103.7495
190.8453,103.7495
190.7783,103.7298
190.7325,103.6770
190.7217,103.6158
190.7217,103.6153
190.0894,102.9830
190.1530,102.9659
190.2670,102.9001
190.3601,102.8070
190.4259,102.6930
190.4430,102.6294
Z" /> 
<path style="fill:#000000; fill-opacity:1.0000; stroke:none;fill-rule:evenodd;"
d="M 204.4425,100.5202
204.4883,100.5730
204.4995,100.6245
204.4995,123.3755
204.4798,123.4425
204.4270,123.4883
204.3755,123.4995
177.6245,123.4995
177.5575,123.4798
177.5117,123.4270
177.5005,123.3755
177.5005,119.6022
179.6500,119.6022
179.6500,120.2500
180.5670,120.2500
180.5341,120.3070
180.5000,120.4342
180.5000,120.5658
180.5341,120.6930
180.5670,120.7500
179.6500,120.7500
179.6500,121.3978
179.6564,121.4574
179.6564,121.4574
179.7066,121.5921
179.7066,121.5921
179.7928,121.7072
179.7928,121.7072
179.9079,121.7933
179.9079,121.7934
180.0426,121.8436
180.0426,121.8436
180.1022,121.8500
180.1022,121.8500
180.7500,121.8500
180.7500,120.9330
180.8070,120.9659
180.9342,121.0000
181.0658,121.0000
181.1930,120.9659
181.2500,120.9330
181.2500,121.8500
181.8978,121.8500
181.8978,121.8500
181.9574,121.8436
181.9574,121.8436
182.0921,121.7934
182.0921,121.7933
182.2072,121.7072
182.2072,121.7072
182.2934,121.5921
182.2934,121.5921
182.3436,121.4574
182.3436,121.4574
182.3500,121.3978
182.3500,121.3978
182.3500,120.7500
181.4330,120.7500
181.4659,120.6930
181.5000,120.5658
181.5000,120.4342
181.4659,120.3070
181.4330,120.2500
182.3500,120.2500
182.3500,119.6022
182.3500,119.6022
182.3436,119.5426
182.3436,119.5426
182.2934,119.4079
182.2934,119.4079
182.2072,119.2928
182.2072,119.2928
182.0921,119.2066
182.0921,119.2066
181.9574,119.1564
181.9574,119.1564
181.8978,119.1500
181.2500,119.1500
181.2500,120.0670
181.1930,120.0341
181.0658,120.0000
180.9342,120.0000
180.8070,120.0341
180.7500,120.0670
180.7500,119.1500
180.1022,119.1500
180.0426,119.1564
180.0426,119.1564
179.9079,119.2066
179.9079,119.2066
179.7928,119.2928
179.7928,119.2928
179.7066,119.4079
179.7066,119.4079
179.6564,119.5426
179.6564,119.5426
179.6500,119.6022
177.5005,119.6022
177.5005,119.0742
184.5250,119.0742
184.5353,119.1752
184.5895,119.3388
184.5896,119.3388
184.6801,119.4855
184.6801,119.4855
184.8020,119.6074
184.8020,119.6074
184.9487,119.6979
184.9487,119.6980
185.1123,119.7522
185.2134,119.7625
185.2500,119.7625
185.7500,119.7625
185.7866,119.7625
185.7867,119.7625
185.8877,119.7522
186.0513,119.6980
186.0513,119.6979
186.1980,119.6074
186.1980,119.6074
186.3199,119.4855
186.3199,119.4855
186.4104,119.3388
186.4105,119.3388
186.4647,119.1752
186.4750,119.0742
186.4750,119.0741
186.4750,118.9750
185.7500,118.9750
185.7500,119.7625
185.2500,119.7625
185.2500,118.9750
184.5250,118.9750
184.5250,119.0742
177.5005,119.0742
177.5005,113.4521
184.1995,113.4521
184.1995,115.0479
184.1995,115.0479
184.2059,115.1075
184.2562,115.2423
184.2562,115.2423
184.3425,115.3575
184.3425,115.3575
184.4577,115.4438
184.4577,115.4438
184.5925,115.4941
184.6388,115.4991
184.7033,115.5258
184.7432,115.5832
184.7495,115.6224
184.7495,116.1179
184.7298,116.1850
184.7132,116.2056
184.6797,116.2391
184.5891,116.3860
184.5891,116.3860
184.5348,116.5497
184.5348,116.5497
184.5348,116.5497
184.5245,116.6508
184.5245,117.3492
184.5245,117.3492
184.5348,117.4503
184.5655,117.5427
184.5891,117.6140
184.6797,117.7608
184.6797,117.7609
184.6940,117.7752
184.7275,117.8365
184.7225,117.9062
184.6940,117.9505
184.6801,117.9645
184.5896,118.1112
184.5895,118.1112
184.5353,118.2748
184.5250,118.3758
184.5250,118.4750
186.4750,118.4750
186.4750,118.3759
186.4750,118.3758
186.4647,118.2748
186.4105,118.1112
186.4104,118.1112
186.3199,117.9645
186.3199,117.9645
186.3060,117.9505
186.2725,117.8892
186.2775,117.8195
186.3060,117.7752
186.3203,117.7608
186.4109,117.6140
186.4652,117.4503
186.4755,117.3492
186.4755,117.0000
188.6250,117.0000
188.6355,117.1027
188.6906,117.2691
188.6906,117.2691
188.7827,117.4183
188.9067,117.5423
189.0559,117.6344
189.0559,117.6344
189.2223,117.6895
189.2223,117.6895
189.3250,117.7000
189.4500,117.7000
189.4500,117.7000
189.4500,116.7500
188.6250,116.7500
188.6250,117.0000
186.4755,117.0000
186.4755,116.6508
186.4652,116.5497
186.4200,116.4135
186.4176,116.3437
186.4534,116.2836
186.5159,116.2524
186.5377,116.2505
187.6954,116.2505
187.7428,116.2599
187.7665,116.2697
187.7665,116.2697
187.7665,116.2697
187.9212,116.3005
187.9212,116.3005
187.9212,116.3005
188.0788,116.3005
188.0788,116.3005
188.2335,116.2697
188.3792,116.2094
188.3792,116.2094
188.3792,116.2094
188.4321,116.1740
188.4988,116.1531
188.5662,116.1716
188.6129,116.2236
188.6170,116.2420
188.6250,116.2500
189.4500,116.2500
189.4500,115.3000
189.3250,115.3000
189.3250,115.3000
189.2223,115.3105
189.0559,115.3656
189.0559,115.3656
188.9705,115.4183
188.9031,115.4368
188.8364,115.4158
188.7916,115.3622
188.7838,115.3370
188.7763,115.2995
188.7697,115.2665
188.7697,115.2665
188.7094,115.1208
188.7094,115.1208
188.6218,114.9897
188.6218,114.9897
188.5103,114.8782
188.5103,114.8782
188.3792,114.7906
188.3792,114.7906
188.2335,114.7303
188.2335,114.7303
188.0788,114.6995
188.0788,114.6995
187.9212,114.6995
187.9212,114.6995
187.7665,114.7303
187.7665,114.7303
187.7665,114.7303
187.7665,114.7303
187.7428,114.7401
187.6954,114.7495
186.9245,114.7495
186.8575,114.7298
186.8117,114.6770
186.8005,114.6255
186.8005,113.4521
186.8005,113.4521
186.8005,113.4521
186.7941,113.3925
186.7923,113.3878
186.7438,113.2577
186.7438,113.2577
186.6575,113.1425
186.6575,113.1425
186.5423,113.0562
186.5423,113.0562
186.4075,113.0059
186.4075,113.0059
186.3479,112.9995
186.3479,112.9995
186.3479,112.9995
186.3479,112.9995
184.6521,112.9995
184.6521,112.9995
184.5925,113.0059
184.4577,113.0562
184.4577,113.0562
184.3425,113.1425
184.3425,113.1425
184.2562,113.2577
184.2562,113.2577
184.2059,113.3925
184.2059,113.3925
184.2027,113.4227
184.1995,113.4521
184.1995,113.4521
177.5005,113.4521
177.5005,110.5816
179.8995,110.5816
179.8995,110.5817
179.8995,111.1283
179.8995,111.1284
179.9096,111.2277
179.9097,111.2277
179.9630,111.3887
179.9630,111.3887
180.0520,111.5330
180.0520,111.5330
180.1720,111.6530
180.1720,111.6530
180.3163,111.7420
180.3163,111.7420
180.3163,111.7420
180.4773,111.7953
180.5767,111.8055
181.4233,111.8055
181.4234,111.8055
181.4234,111.8055
181.4778,111.7999
181.5227,111.7953
181.6837,111.7420
181.8280,111.6530
181.8392,111.6418
181.9005,111.6083
181.9269,111.6055
183.0177,111.6055
183.0848,111.6252
183.0866,111.6264
183.1445,111.6651
183.1445,111.6651
183.1445,111.6651
183.2811,111.7217
183.2811,111.7217
183.3210,111.7296
183.3538,111.7361
183.4157,111.7685
183.4458,111.8144
183.4562,111.8423
183.4562,111.8423
183.5425,111.9575
183.5425,111.9575
183.6577,112.0438
183.6577,112.0438
183.7925,112.0941
183.7925,112.0941
183.7994,112.0948
183.8521,112.1005
185.1479,112.1005
185.2075,112.0941
185.3423,112.0438
185.4257,111.9814
185.4912,111.9570
185.5594,111.9718
185.5743,111.9814
185.6577,112.0438
185.6577,112.0438
185.7925,112.0941
185.7925,112.0941
185.7994,112.0948
185.8521,112.1005
187.1479,112.1005
187.2075,112.0941
187.3423,112.0438
187.4575,111.9575
187.5438,111.8423
187.5575,111.8055
187.5853,111.7312
187.6271,111.6752
187.6926,111.6508
187.7014,111.6505
189.0731,111.6505
189.1402,111.6702
189.1608,111.6868
189.1720,111.6980
189.1720,111.6980
189.3163,111.7870
189.3163,111.7870
189.3163,111.7870
189.4773,111.8403
189.5767,111.8505
190.4233,111.8505
190.4234,111.8505
190.4234,111.8505
190.4778,111.8449
190.5227,111.8403
190.6837,111.7870
190.8280,111.6980
190.9480,111.5780
191.0370,111.4337
191.0903,111.2727
191.1005,111.1733
191.1005,110.6267
191.0903,110.5273
191.0370,110.3663
190.9948,110.2978
190.9948,110.2978
190.9480,110.2220
190.9480,110.2220
190.8280,110.1020
190.8280,110.1020
190.6837,110.0130
190.6837,110.0130
190.6837,110.0130
190.6134,109.9897
190.5227,109.9597
190.4233,109.9495
189.5767,109.9495
189.5766,109.9495
189.4773,109.9596
189.4773,109.9597
189.3163,110.0130
189.3163,110.0130
189.1720,110.1020
189.1720,110.1020
189.1608,110.1132
189.0995,110.1467
189.0731,110.1495
187.5998,110.1495
187.5327,110.1298
187.5005,110.0998
187.4575,110.0425
187.4575,110.0425
187.4385,110.0282
187.3423,109.9562
187.3423,109.9562
187.2075,109.9059
187.2075,109.9059
187.1479,109.8995
187.1479,109.8995
187.1479,109.8995
187.1479,109.8995
185.8521,109.8995
185.8521,109.8995
185.7925,109.9059
185.6577,109.9562
185.6577,109.9562
185.5861,110.0098
185.5818,110.0130
185.5743,110.0186
185.5088,110.0430
185.4406,110.0282
185.4257,110.0186
185.4182,110.0130
185.3581,109.9680
185.3423,109.9562
185.3423,109.9562
185.2075,109.9059
185.2075,109.9059
185.1479,109.8995
185.1479,109.8995
185.1479,109.8995
185.1479,109.8995
183.8521,109.8995
183.8521,109.8995
183.7925,109.9059
183.6577,109.9562
183.6577,109.9562
183.5425,110.0425
183.5425,110.0425
183.5332,110.0548
183.4773,110.0967
183.4339,110.1045
181.9269,110.1045
181.8598,110.0848
181.8392,110.0682
181.8280,110.0570
181.8280,110.0570
181.6837,109.9680
181.6837,109.9680
181.6837,109.9680
181.6421,109.9542
181.5227,109.9147
181.4233,109.9045
180.5767,109.9045
180.5766,109.9045
180.4773,109.9146
180.4773,109.9147
180.3163,109.9680
180.3163,109.9680
180.1720,110.0570
180.1720,110.0570
180.0520,110.1770
180.0520,110.1770
179.9630,110.3213
179.9630,110.3213
179.9097,110.4823
179.8995,110.5816
177.5005,110.5816
177.5005,107.2816
179.8995,107.2816
179.8995,107.8283
179.8995,107.8284
179.9096,107.9277
179.9097,107.9277
179.9630,108.0887
179.9630,108.0887
180.0520,108.2330
180.0520,108.2330
180.1720,108.3530
180.1720,108.3530
180.3163,108.4420
180.3163,108.4420
180.3163,108.4420
180.4773,108.4953
180.5767,108.5055
181.4233,108.5055
181.4234,108.5055
181.4234,108.5055
181.4778,108.4999
181.5227,108.4953
181.6837,108.4420
181.8280,108.3530
181.8392,108.3418
181.9005,108.3083
181.9269,108.3055
182.4428,108.3055
182.5098,108.3252
182.5305,108.3418
182.7716,108.5830
182.8011,108.6026
182.8453,108.6322
182.8945,108.6651
182.8945,108.6651
182.8945,108.6651
182.8945,108.6651
182.9967,108.7074
183.0311,108.7217
183.0311,108.7217
183.0311,108.7217
183.1761,108.7505
183.1761,108.7505
183.1761,108.7505
183.3239,108.7505
184.0960,108.7505
184.1631,108.7702
184.2016,108.8094
184.2073,108.8187
184.3313,108.9427
184.4807,109.0348
184.6472,109.0900
184.7500,109.1005
185.7500,109.1005
185.7500,109.1005
185.7500,109.1005
185.8063,109.0947
185.8528,109.0900
186.0193,109.0348
186.1687,108.9427
186.2927,108.8187
186.2984,108.8094
186.3504,108.7627
186.4040,108.7505
187.5739,108.7505
187.6715,108.7311
187.7189,108.7217
187.8555,108.6651
187.9047,108.6322
187.9047,108.6322
187.9291,108.6159
187.9784,108.5830
188.1745,108.3868
188.2359,108.3533
188.2622,108.3505
189.0731,108.3505
189.1402,108.3702
189.1608,108.3868
189.1720,108.3980
189.1720,108.3980
189.3163,108.4870
189.3163,108.4870
189.3163,108.4870
189.4773,108.5403
189.5767,108.5505
190.4233,108.5505
190.4234,108.5505
190.4234,108.5505
190.4778,108.5449
190.5227,108.5403
190.6837,108.4870
190.8280,108.3980
190.8392,108.3868
190.9005,108.3533
190.9269,108.3505
191.9739,108.3505
192.0715,108.3311
192.1189,108.3217
192.2555,108.2651
192.2629,108.2601
192.2843,108.2487
192.3792,108.2094
192.5103,108.1218
192.6218,108.0103
192.7094,107.8792
192.7697,107.7335
192.8005,107.5788
192.8005,107.4400
193.5777,107.4400
193.5777,107.4400
194.8000,107.4400
195.3000,107.4400
196.5223,107.4400
196.5223,107.4400
196.5221,107.4375
196.4763,107.2798
196.3927,107.1384
196.3927,107.1384
196.2766,107.0223
196.2766,107.0223
196.1352,106.9387
196.1352,106.9387
195.9775,106.8929
195.9775,106.8929
195.9406,106.8900
195.3000,106.8900
195.3000,107.4400
194.8000,107.4400
194.8000,106.8900
194.1593,106.8900
194.1225,106.8929
194.1225,106.8929
193.9648,106.9387
193.9648,106.9387
193.8234,107.0223
193.8234,107.0223
193.7073,107.1384
193.7073,107.1384
193.6237,107.2798
193.5779,107.4375
193.5777,107.4400
192.8005,107.4400
192.8005,107.4212
192.8005,107.4212
192.8005,107.4212
192.7723,107.2796
192.7697,107.2665
192.7609,107.2453
192.7094,107.1208
192.7094,107.1208
192.6218,106.9897
192.6218,106.9897
192.5103,106.8782
192.5103,106.8782
192.3792,106.7906
192.3792,106.7906
192.2335,106.7303
192.2335,106.7303
192.0788,106.6995
192.0788,106.6995
191.9212,106.6995
191.9212,106.6995
191.7665,106.7303
191.7665,106.7303
191.6208,106.7906
191.6208,106.7906
191.6000,106.8045
191.5640,106.8286
191.4973,106.8495
191.4951,106.8495
190.9269,106.8495
190.8598,106.8298
190.8392,106.8132
190.8280,106.8020
190.8280,106.8020
190.6837,106.7130
190.6837,106.7130
190.6837,106.7130
190.6837,106.7130
190.5227,106.6597
190.4233,106.6495
189.5767,106.6495
189.5766,106.6495
189.4773,106.6596
189.4773,106.6597
189.3163,106.7130
189.3163,106.7130
189.1720,106.8020
189.1720,106.8020
189.1608,106.8132
189.0995,106.8467
189.0731,106.8495
187.8261,106.8495
187.6811,106.8783
187.6811,106.8783
187.5445,106.9349
187.5445,106.9349
187.4216,107.0170
187.4216,107.0171
187.2255,107.2132
187.1641,107.2467
187.1378,107.2495
186.4040,107.2495
186.3369,107.2298
186.3133,107.2101
186.3049,107.2011
186.2927,107.1813
186.1975,107.0862
186.1961,107.0846
186.1813,107.0552
186.1656,107.0264
186.1657,107.0242
186.1647,107.0222
186.1682,106.9895
186.1705,106.9567
186.1719,106.9546
186.1721,106.9527
186.1770,106.9466
186.1990,106.9123
186.2416,106.8698
186.2927,106.8187
186.3848,106.6693
186.4400,106.5028
186.4505,106.4000
186.4505,105.6000
186.4400,105.4972
186.4123,105.4135
186.4099,105.3437
186.4456,105.2836
186.5081,105.2524
186.5300,105.2505
192.4261,105.2505
192.5739,105.2505
197.8878,105.2505
197.9548,105.2702
197.9755,105.2868
199.2132,106.5245
199.2279,106.5515
199.2445,106.5773
199.2454,106.5835
199.2467,106.5859
199.2495,106.6122
199.2495,106.7655
199.2298,106.8325
199.1770,106.8783
199.1255,106.8895
199.1093,106.8895
199.0724,106.8924
199.0724,106.8924
198.9273,106.9346
198.8927,106.9395
198.7361,106.9395
198.5911,106.9683
198.5911,106.9683
198.4545,107.0249
198.4545,107.0249
198.4447,107.0315
198.4397,107.0348
198.3316,107.1071
198.3316,107.1071
196.9170,108.5216
196.9045,108.5403
196.8760,108.5830
196.8349,108.6445
196.8349,108.6445
196.7783,108.7811
196.7783,108.7811
196.7711,108.8174
196.7387,108.8793
196.6780,108.9139
196.6082,108.9102
196.5516,108.8693
196.5260,108.8043
196.5255,108.7932
196.5255,108.7443
196.5255,108.7443
196.5237,108.7217
196.5226,108.7074
196.5103,108.6651
196.4770,108.5505
196.4767,108.5496
196.3931,108.4081
196.3931,108.4081
196.3883,108.4020
196.3906,108.4002
196.3638,108.3511
196.3688,108.2814
196.3896,108.2490
196.3879,108.2477
196.3927,108.2415
196.4763,108.1002
196.5221,107.9425
196.5223,107.9400
196.5223,107.9400
193.5777,107.9400
193.5777,107.9400
193.5779,107.9425
193.5779,107.9425
193.6210,108.0909
193.6208,108.1608
193.5829,108.2194
193.5192,108.2483
193.5019,108.2495
192.9261,108.2495
192.8972,108.2552
192.8972,108.2552
192.7811,108.2783
192.7811,108.2783
192.7011,108.3115
192.7011,108.3115
192.6445,108.3349
192.5917,108.3702
192.5668,108.3868
192.5624,108.3898
192.5216,108.4170
192.5216,108.4170
191.6847,109.2539
191.6445,109.2808
191.6208,109.2906
191.6208,109.2906
191.4897,109.3782
191.4897,109.3782
191.3782,109.4897
191.3782,109.4897
191.2906,109.6208
191.2906,109.6208
191.2303,109.7665
191.2303,109.7665
191.1995,109.9212
191.1995,110.0788
191.2244,110.2042
191.2244,110.2042
191.2303,110.2335
191.2906,110.3792
191.3115,110.4104
191.3115,110.4104
191.3782,110.5103
191.3782,110.5103
191.4897,110.6218
191.4897,110.6218
191.6208,110.7094
191.6208,110.7094
191.7665,110.7697
191.7665,110.7697
191.8182,110.7800
191.8746,110.7912
191.8765,110.7922
191.8786,110.7921
191.9073,110.8083
191.9365,110.8236
191.9376,110.8255
191.9394,110.8265
191.9548,110.8557
191.9711,110.8843
191.9710,110.8864
191.9720,110.8883
191.9691,110.9212
191.9673,110.9541
191.9661,110.9565
191.9659,110.9579
191.9620,110.9640
191.9486,110.9886
191.9437,110.9949
191.9170,111.0216
191.8804,111.0765
191.8780,111.0800
191.8780,111.0800
191.8349,111.1445
191.8349,111.1445
191.7783,111.2811
191.7783,111.2811
191.7495,111.4261
191.7495,111.4261
191.7495,113.8239
191.7495,113.8239
191.7495,113.8239
191.7783,113.9689
191.7783,113.9689
191.8349,114.1055
191.8678,114.1547
191.8678,114.1547
191.9170,114.2284
191.9171,114.2284
193.2265,115.5378
193.2599,115.5991
193.2550,115.6688
193.2131,115.7248
193.1476,115.7492
193.1388,115.7495
192.8406,115.7495
192.7736,115.7298
192.7351,115.6906
192.6677,115.5813
192.5437,115.4573
192.3943,115.3652
192.2278,115.3100
192.2278,115.3100
192.1250,115.2995
191.3750,115.2995
191.3750,115.2995
191.2722,115.3100
191.2722,115.3100
191.1057,115.3652
191.1057,115.3652
190.9563,115.4573
190.8323,115.5813
190.8323,115.5813
190.8302,115.5847
190.8282,115.5865
190.8278,115.5870
190.8277,115.5869
190.7783,115.6314
190.7093,115.6426
190.6452,115.6148
190.6192,115.5847
190.6173,115.5817
190.6173,115.5817
190.4933,115.4577
190.3441,115.3656
190.3441,115.3656
190.1777,115.3105
190.1777,115.3105
190.0750,115.3000
189.9500,115.3000
189.9500,117.7000
190.0750,117.7000
190.0750,117.7000
190.1777,117.6895
190.3441,117.6344
190.3441,117.6344
190.4933,117.5423
190.6173,117.4183
190.6192,117.4153
190.6210,117.4137
190.6218,117.4127
190.6220,117.4128
190.6711,117.3686
190.7401,117.3574
190.8042,117.3852
190.8302,117.4153
190.8323,117.4187
190.9563,117.5427
191.1057,117.6348
191.2722,117.6900
191.3750,117.7005
192.1250,117.7005
192.1250,117.7005
192.1250,117.7005
192.1813,117.6947
192.2278,117.6900
192.3943,117.6348
192.5437,117.5427
192.6677,117.4187
192.7351,117.3094
192.7870,117.2627
192.8406,117.2505
193.8844,117.2505
193.9514,117.2702
193.9899,117.3094
194.0573,117.4187
194.1813,117.5427
194.3307,117.6348
194.4972,117.6900
194.6000,117.7005
195.4000,117.7005
195.4000,117.7005
195.4000,117.7005
195.4563,117.6947
195.5028,117.6900
195.6693,117.6348
195.8187,117.5427
195.9123,117.4490
195.9736,117.4156
196.0433,117.4205
196.0877,117.4490
196.1813,117.5427
196.3307,117.6348
196.4972,117.6900
196.6000,117.7005
197.4000,117.7005
197.4000,117.7005
197.4000,117.7005
197.4563,117.6947
197.5028,117.6900
197.6693,117.6348
197.8187,117.5427
197.9427,117.4187
198.0101,117.3094
198.0620,117.2627
198.1156,117.2505
198.6378,117.2505
198.7048,117.2702
198.7255,117.2868
200.4440,119.0053
200.4775,119.0667
200.4725,119.1364
200.4306,119.1923
200.4149,119.2009
200.4155,119.2020
200.4077,119.2062
200.2925,119.2925
200.2925,119.2925
200.2062,119.4077
200.2062,119.4077
200.1559,119.5425
200.1495,119.6021
200.1495,119.6021
200.1495,119.6021
200.1495,121.3979
200.1495,121.3979
200.1559,121.4575
200.2062,121.5923
200.2062,121.5923
200.2925,121.7075
200.2925,121.7075
200.4077,121.7938
200.4077,121.7938
200.5425,121.8441
200.5425,121.8441
200.5494,121.8448
200.6021,121.8505
202.3979,121.8505
202.4575,121.8441
202.5923,121.7938
202.7075,121.7075
202.7938,121.5923
202.8441,121.4575
202.8505,121.3979
202.8505,119.6021
202.8441,119.5425
202.8228,119.4855
202.7938,119.4077
202.7938,119.4077
202.7075,119.2925
202.7075,119.2925
202.5923,119.2062
202.5923,119.2062
202.4575,119.1559
202.4575,119.1559
202.3979,119.1495
202.3979,119.1495
202.3979,119.1495
202.3979,119.1495
202.3745,119.1495
202.3075,119.1298
202.2617,119.0770
202.2505,119.0255
202.2505,118.9261
202.2217,118.7811
202.2217,118.7811
202.2217,118.7811
202.1651,118.6445
202.1322,118.5953
202.1322,118.5953
202.0830,118.5216
202.0830,118.5216
199.4784,115.9171
199.4784,115.9170
199.4047,115.8678
199.4047,115.8678
199.3555,115.8349
199.2189,115.7783
199.2189,115.7783
199.0739,115.7495
199.0739,115.7495
198.1156,115.7495
198.0486,115.7298
198.0101,115.6906
197.9427,115.5813
197.8187,115.4573
197.6693,115.3652
197.6693,115.3652
197.6693,115.3652
197.6661,115.3637
197.6585,115.3580
197.6527,115.3564
197.6406,115.3447
197.6258,115.3336
197.6201,115.3272
197.5830,115.2716
197.4784,115.1670
197.3011,114.9897
196.9615,114.6502
196.9280,114.5888
196.9330,114.5192
196.9749,114.4632
197.0102,114.4448
197.1138,114.4105
197.1138,114.4104
197.2605,114.3199
197.2745,114.3060
197.3358,114.2725
197.4055,114.2775
197.4498,114.3060
197.4641,114.3203
197.6110,114.4109
197.7747,114.4652
197.8758,114.4755
198.5742,114.4755
198.5742,114.4755
198.5742,114.4755
198.6295,114.4698
198.6753,114.4652
198.8390,114.4109
198.9858,114.3203
199.0194,114.2868
199.0807,114.2533
199.1071,114.2505
199.5739,114.2505
199.6849,114.2284
199.7189,114.2217
199.8555,114.1651
199.9047,114.1322
199.9113,114.1278
199.9291,114.1159
199.9784,114.0830
200.5830,113.4784
200.6403,113.3925
200.6651,113.3555
200.7217,113.2189
200.7369,113.1425
200.7505,113.0739
200.7505,112.4245
200.7702,112.3575
200.8230,112.3117
200.8745,112.3005
200.8907,112.3005
200.8907,112.3005
200.9276,112.2976
200.9276,112.2976
200.9276,112.2976
200.9692,112.2855
201.0854,112.2517
201.2269,112.1681
201.3431,112.0519
201.4267,111.9104
201.4626,111.7870
201.4726,111.7526
201.4726,111.7526
201.4731,111.7465
201.4755,111.7157
201.4755,111.2843
201.4755,111.2819
201.4763,111.2819
201.4841,111.2514
201.4926,111.2178
201.4927,111.2176
201.4928,111.2174
201.5182,111.1937
201.5435,111.1700
201.5438,111.1699
201.5439,111.1698
201.5781,111.1636
201.6122,111.1573
201.6125,111.1574
201.6127,111.1573
201.6469,111.1661
201.6658,111.1739
201.6658,111.1739
201.6658,111.1739
201.7811,111.2217
201.8972,111.2448
201.9107,111.2474
201.9261,111.2505
201.9261,111.2505
201.9261,111.2505
202.0739,111.2505
202.1954,111.2505
202.2428,111.2599
202.2665,111.2697
202.2665,111.2697
202.2665,111.2697
202.4212,111.3005
202.4212,111.3005
202.4212,111.3005
202.5788,111.3005
202.5788,111.3005
202.7335,111.2697
202.8496,111.2217
202.8792,111.2094
202.8792,111.2094
202.8792,111.2094
203.0103,111.1218
203.1218,111.0103
203.2094,110.8792
203.2697,110.7335
203.3005,110.5788
203.3005,110.4212
203.3005,110.4212
203.3005,110.4212
203.2697,110.2665
203.2561,110.2335
203.2094,110.1208
203.2094,110.1208
203.1218,109.9897
203.1218,109.9897
203.0103,109.8782
203.0103,109.8782
202.9727,109.8531
202.9279,109.7995
202.9192,109.7302
202.9494,109.6671
202.9727,109.6469
202.9993,109.6291
203.0103,109.6218
203.1218,109.5103
203.2094,109.3792
203.2164,109.3622
203.2461,109.2906
203.2697,109.2335
203.3005,109.0788
203.3005,108.9212
203.3005,108.9212
203.3005,108.9212
203.2922,108.8793
203.2697,108.7665
203.2682,108.7627
203.2094,108.6208
203.2094,108.6208
203.1218,108.4897
203.1218,108.4897
203.0103,108.3782
203.0103,108.3782
202.8792,108.2906
202.8792,108.2906
202.7335,108.2303
202.7335,108.2303
202.5788,108.1995
202.5788,108.1995
202.4212,108.1995
202.4212,108.1995
202.4015,108.2034
202.3829,108.2071
202.3587,108.2095
201.5602,108.2095
201.4932,108.1898
201.4474,108.1370
201.4375,108.0679
201.4411,108.0509
201.4726,107.9426
201.4726,107.9426
201.4726,107.9425
201.4755,107.9057
201.4755,107.4743
201.4726,107.4374
201.4679,107.4212
201.4267,107.2796
201.4267,107.2796
201.4267,107.2796
201.3431,107.1381
201.3431,107.1381
201.3431,107.1381
201.2269,107.0219
201.2269,107.0219
201.1425,106.9720
201.0854,106.9383
201.0854,106.9383
201.0854,106.9383
201.0854,106.9383
200.9276,106.8924
200.9276,106.8924
200.8907,106.8895
200.8907,106.8895
200.8745,106.8895
200.8075,106.8698
200.7617,106.8170
200.7505,106.7655
200.7505,106.1761
200.7319,106.0827
200.7302,106.0739
200.7217,106.0311
200.6662,105.8971
200.6654,105.8950
200.6322,105.8453
200.6322,105.8453
200.5830,105.7716
200.5830,105.7716
198.7284,103.9171
198.7284,103.9170
198.6288,103.8505
198.6288,103.8505
198.6055,103.8349
198.6055,103.8349
198.4689,103.7783
198.4689,103.7783
198.3239,103.7495
198.3239,103.7495
193.9138,103.7495
193.8467,103.7298
193.8010,103.6770
193.7910,103.6079
193.7976,103.5822
193.8441,103.4575
193.8505,103.3979
193.8505,102.8689
199.9995,102.8689
199.9995,103.1311
200.0204,103.2901
200.0337,103.3911
200.0938,103.6153
200.1016,103.6444
200.1016,103.6444
200.2020,103.8867
200.2020,103.8867
200.3331,104.1138
200.4927,104.3219
200.4927,104.3219
200.6781,104.5073
200.6781,104.5073
200.6781,104.5073
200.6968,104.5216
200.8862,104.6669
201.1133,104.7980
201.1133,104.7980
201.3556,104.8984
201.3556,104.8984
201.6089,104.9663
201.8689,105.0005
201.8689,105.0005
202.1311,105.0005
202.1311,105.0005
202.3911,104.9663
202.6444,104.8984
202.8867,104.7980
203.1138,104.6669
203.3219,104.5073
203.3219,104.5073
203.3219,104.5073
203.5073,104.3219
203.5073,104.3219
203.5073,104.3219
203.6669,104.1138
203.7980,103.8867
203.8984,103.6444
203.9663,103.3911
204.0005,103.1311
204.0005,102.8689
203.9663,102.6089
203.8984,102.3556
203.8273,102.1839
203.7980,102.1133
203.7980,102.1133
203.6669,101.8862
203.5073,101.6781
203.5073,101.6781
203.3219,101.4927
203.3219,101.4927
203.1138,101.3331
202.8867,101.2020
202.8867,101.2020
202.6444,101.1016
202.6444,101.1016
202.6444,101.1016
202.3911,101.0337
202.3333,101.0261
202.1311,100.9995
202.1311,100.9995
201.8689,100.9995
201.8689,100.9995
201.6378,101.0299
201.6089,101.0337
201.3556,101.1016
201.3556,101.1016
201.1133,101.2020
201.1133,101.2020
200.8862,101.3331
200.6781,101.4927
200.4927,101.6781
200.3331,101.8862
200.2020,102.1133
200.2020,102.1133
200.1016,102.3556
200.1016,102.3556
200.0453,102.5658
200.0337,102.6089
199.9995,102.8689
193.8505,102.8689
193.8505,102.5000
193.8505,101.6021
193.8505,101.6021
193.8505,101.6021
193.8441,101.5425
193.8255,101.4927
193.7938,101.4077
193.7938,101.4077
193.7075,101.2925
193.7075,101.2925
193.5923,101.2062
193.5923,101.2062
193.4575,101.1559
193.4575,101.1559
193.3979,101.1495
193.3979,101.1495
193.3979,101.1495
193.3979,101.1495
191.6021,101.1495
191.6021,101.1495
191.5425,101.1559
191.4077,101.2062
191.4077,101.2062
191.2925,101.2925
191.2925,101.2925
191.2062,101.4077
191.2062,101.4077
191.1559,101.5425
191.1495,101.6021
191.1495,101.6021
191.1495,101.6021
191.1495,101.6127
191.1298,101.6797
191.1132,101.7004
190.4430,102.3706
190.4259,102.3070
190.3601,102.1930
190.2670,102.0999
190.1530,102.0341
190.0894,102.0170
190.7217,101.3847
190.6675,101.3454
190.4782,101.2489
190.2761,101.1832
190.0662,101.1500
189.8538,101.1500
189.6439,101.1832
189.6439,101.1832
189.4418,101.2489
189.2524,101.3454
189.1983,101.3847
189.1983,101.3847
189.8306,102.0170
189.7670,102.0341
189.6530,102.0999
189.5599,102.1930
189.4941,102.3070
189.4770,102.3706
188.8447,101.7383
188.8447,101.7383
188.8054,101.7924
188.7089,101.9818
188.6432,102.1839
188.6432,102.1839
188.6100,102.3938
188.6100,102.6062
188.6432,102.8161
188.6432,102.8161
188.7089,103.0182
188.8054,103.2075
188.8447,103.2617
189.4770,102.6294
189.4941,102.6930
189.5599,102.8070
189.6530,102.9001
189.7670,102.9659
189.8306,102.9830
189.1983,103.6153
189.1983,103.6158
189.1840,103.6841
189.1349,103.7339
189.0747,103.7495
185.6761,103.7495
185.5311,103.7783
185.5311,103.7783
185.3945,103.8349
185.3945,103.8349
185.3790,103.8453
185.3712,103.8505
185.3712,103.8505
185.2716,103.9170
185.2716,103.9171
184.6670,104.5216
184.6670,104.5216
184.6178,104.5953
184.6178,104.5953
184.5849,104.6445
184.5849,104.6445
184.5283,104.7811
184.5283,104.7811
184.5038,104.9044
184.4714,104.9663
184.4473,104.9858
184.3313,105.0573
184.3313,105.0573
184.2073,105.1813
184.1152,105.3307
184.1152,105.3307
184.0600,105.4972
184.0600,105.4972
184.0600,105.4972
184.0495,105.6000
184.0495,106.4000
184.0495,106.4000
184.0600,106.5028
184.0600,106.5028
184.0971,106.6146
184.1152,106.6693
184.2063,106.8170
184.2073,106.8187
184.3010,106.9123
184.3043,106.9184
184.3099,106.9224
184.3208,106.9487
184.3344,106.9736
184.3339,106.9805
184.3366,106.9869
184.3315,107.0149
184.3295,107.0433
184.3250,107.0505
184.3241,107.0557
184.3083,107.0775
184.3039,107.0846
184.3025,107.0862
184.2073,107.1813
184.1951,107.2011
184.1867,107.2101
184.1668,107.2219
184.1496,107.2373
184.1351,107.2406
184.1265,107.2457
184.1147,107.2453
184.0960,107.2495
183.6122,107.2495
183.5452,107.2298
183.5245,107.2132
183.2834,106.9720
183.2278,106.9349
183.2011,106.9170
183.1605,106.8899
183.1605,106.8899
183.1605,106.8899
183.1605,106.8899
183.0239,106.8333
183.0239,106.8333
182.8789,106.8045
182.8789,106.8045
181.9269,106.8045
181.8598,106.7848
181.8392,106.7682
181.8280,106.7570
181.8280,106.7570
181.6837,106.6680
181.6837,106.6680
181.6837,106.6680
181.6585,106.6596
181.5227,106.6147
181.4233,106.6045
180.5767,106.6045
180.5766,106.6045
180.4773,106.6146
180.4773,106.6147
180.3163,106.6680
180.3163,106.6680
180.1720,106.7570
180.1720,106.7570
180.0520,106.8770
180.0520,106.8770
179.9630,107.0213
179.9630,107.0213
179.9097,107.1823
179.8995,107.2816
177.5005,107.2816
177.5005,100.6245
177.5202,100.5575
177.5730,100.5117
177.6245,100.5005
204.3755,100.5005
Z" /> 
</g> 
</svg>
